<svg xmlns="http://www.w3.org/2000/svg" width="520" height="420" viewBox="0 0 520 420">
<rect width="100%" height="100%" fill="#ffffff"/>
<text x="16" y="24" font-family="Arial" font-size="15" font-weight="700" fill="#222">best_B6.xyz</text>
<line x1="378.10" y1="234.91" x2="431.69" y2="386.00" stroke="#808080" stroke-width="2"/>
<line x1="378.10" y1="234.91" x2="284.98" y2="303.01" stroke="#808080" stroke-width="2"/>
<line x1="378.10" y1="234.91" x2="235.02" y2="116.99" stroke="#808080" stroke-width="2"/>
<line x1="431.69" y1="386.00" x2="284.98" y2="303.01" stroke="#808080" stroke-width="2"/>
<line x1="284.98" y1="303.01" x2="235.02" y2="116.99" stroke="#808080" stroke-width="2"/>
<line x1="284.98" y1="303.01" x2="141.90" y2="185.09" stroke="#808080" stroke-width="2"/>
<line x1="235.02" y1="116.99" x2="88.31" y2="34.00" stroke="#808080" stroke-width="2"/>
<line x1="235.02" y1="116.99" x2="141.90" y2="185.09" stroke="#808080" stroke-width="2"/>
<line x1="88.31" y1="34.00" x2="141.90" y2="185.09" stroke="#808080" stroke-width="2"/>
<circle cx="141.90" cy="185.09" r="11.00" fill="#4f8a8b" stroke="#1f4142" stroke-width="1.5"/>
<text x="141.90" y="189.09" text-anchor="middle" font-family="Arial" font-size="10" fill="#ffffff">B</text>
<circle cx="284.98" cy="303.01" r="11.56" fill="#4f8a8b" stroke="#1f4142" stroke-width="1.5"/>
<text x="284.98" y="307.01" text-anchor="middle" font-family="Arial" font-size="10" fill="#ffffff">B</text>
<circle cx="88.31" cy="34.00" r="11.95" fill="#4f8a8b" stroke="#1f4142" stroke-width="1.5"/>
<text x="88.31" y="38.00" text-anchor="middle" font-family="Arial" font-size="10" fill="#ffffff">B</text>
<circle cx="431.69" cy="386.00" r="12.55" fill="#4f8a8b" stroke="#1f4142" stroke-width="1.5"/>
<text x="431.69" y="390.00" text-anchor="middle" font-family="Arial" font-size="10" fill="#ffffff">B</text>
<circle cx="235.02" cy="116.99" r="12.94" fill="#4f8a8b" stroke="#1f4142" stroke-width="1.5"/>
<text x="235.02" y="120.99" text-anchor="middle" font-family="Arial" font-size="10" fill="#ffffff">B</text>
<circle cx="378.10" cy="234.91" r="13.50" fill="#4f8a8b" stroke="#1f4142" stroke-width="1.5"/>
<text x="378.10" y="238.91" text-anchor="middle" font-family="Arial" font-size="10" fill="#ffffff">B</text>
</svg>