<?xml version="1.0" encoding="utf-8" standalone="no"?>
<!DOCTYPE svg PUBLIC "-//W3C//DTD SVG 1.1//EN"
  "http://www.w3.org/Graphics/SVG/1.1/DTD/svg11.dtd">
<svg xmlns:xlink="http://www.w3.org/1999/xlink" width="636.88125pt" height="312.458125pt" viewBox="0 0 636.88125 312.458125" xmlns="http://www.w3.org/2000/svg" version="1.1">
 <metadata>
  <rdf:RDF xmlns:dc="http://purl.org/dc/elements/1.1/" xmlns:cc="http://creativecommons.org/ns#" xmlns:rdf="http://www.w3.org/1999/02/22-rdf-syntax-ns#">
   <cc:Work>
    <dc:type rdf:resource="http://purl.org/dc/dcmitype/StillImage"/>
    <dc:date>2026-06-11T17:26:50.729527</dc:date>
    <dc:format>image/svg+xml</dc:format>
    <dc:creator>
     <cc:Agent>
      <dc:title>Matplotlib v3.10.8, https://matplotlib.org/</dc:title>
     </cc:Agent>
    </dc:creator>
   </cc:Work>
  </rdf:RDF>
 </metadata>
 <defs>
  <style type="text/css">*{stroke-linejoin: round; stroke-linecap: butt}</style>
 </defs>
 <g id="figure_1">
  <g id="patch_1">
   <path d="M 0 312.458125 
L 636.88125 312.458125 
L 636.88125 0 
L 0 0 
z
" style="fill: #ffffff"/>
  </g>
  <g id="axes_1">
   <g id="patch_2">
    <path d="M 43.78125 273.48 
L 629.68125 273.48 
L 629.68125 24 
L 43.78125 24 
z
" style="fill: #ffffff"/>
   </g>
   <g id="matplotlib.axis_1">
    <g id="xtick_1">
     <g id="line2d_1">
      <path d="M 43.78125 273.48 
L 43.78125 24 
" clip-path="url(#pf3c9dedad5)" style="fill: none; stroke: #d9dddd; stroke-width: 0.8; stroke-linecap: square"/>
     </g>
     <g id="line2d_2">
      <defs>
       <path id="m7773a783d5" d="M 0 0 
L 0 3.5 
" style="stroke: #000000; stroke-width: 0.8"/>
      </defs>
      <g>
       <use xlink:href="#m7773a783d5" x="43.78125" y="273.48" style="stroke: #000000; stroke-width: 0.8"/>
      </g>
     </g>
     <g id="text_1">
      <!-- 0 -->
      <g transform="translate(40.6 288.078438) scale(0.1 -0.1)">
       <defs>
        <path id="DejaVuSans-30" d="M 2034 4250 
Q 1547 4250 1301 3770 
Q 1056 3291 1056 2328 
Q 1056 1369 1301 889 
Q 1547 409 2034 409 
Q 2525 409 2770 889 
Q 3016 1369 3016 2328 
Q 3016 3291 2770 3770 
Q 2525 4250 2034 4250 
z
M 2034 4750 
Q 2819 4750 3233 4129 
Q 3647 3509 3647 2328 
Q 3647 1150 3233 529 
Q 2819 -91 2034 -91 
Q 1250 -91 836 529 
Q 422 1150 422 2328 
Q 422 3509 836 4129 
Q 1250 4750 2034 4750 
z
" transform="scale(0.015625)"/>
       </defs>
       <use xlink:href="#DejaVuSans-30"/>
      </g>
     </g>
    </g>
    <g id="xtick_2">
     <g id="line2d_3">
      <path d="M 120.88143 273.48 
L 120.88143 24 
" clip-path="url(#pf3c9dedad5)" style="fill: none; stroke: #d9dddd; stroke-width: 0.8; stroke-linecap: square"/>
     </g>
     <g id="line2d_4">
      <g>
       <use xlink:href="#m7773a783d5" x="120.88143" y="273.48" style="stroke: #000000; stroke-width: 0.8"/>
      </g>
     </g>
     <g id="text_2">
      <!-- 200 -->
      <g transform="translate(111.33768 288.078438) scale(0.1 -0.1)">
       <defs>
        <path id="DejaVuSans-32" d="M 1228 531 
L 3431 531 
L 3431 0 
L 469 0 
L 469 531 
Q 828 903 1448 1529 
Q 2069 2156 2228 2338 
Q 2531 2678 2651 2914 
Q 2772 3150 2772 3378 
Q 2772 3750 2511 3984 
Q 2250 4219 1831 4219 
Q 1534 4219 1204 4116 
Q 875 4013 500 3803 
L 500 4441 
Q 881 4594 1212 4672 
Q 1544 4750 1819 4750 
Q 2544 4750 2975 4387 
Q 3406 4025 3406 3419 
Q 3406 3131 3298 2873 
Q 3191 2616 2906 2266 
Q 2828 2175 2409 1742 
Q 1991 1309 1228 531 
z
" transform="scale(0.015625)"/>
       </defs>
       <use xlink:href="#DejaVuSans-32"/>
       <use xlink:href="#DejaVuSans-30" transform="translate(63.623047 0)"/>
       <use xlink:href="#DejaVuSans-30" transform="translate(127.246094 0)"/>
      </g>
     </g>
    </g>
    <g id="xtick_3">
     <g id="line2d_5">
      <path d="M 197.981611 273.48 
L 197.981611 24 
" clip-path="url(#pf3c9dedad5)" style="fill: none; stroke: #d9dddd; stroke-width: 0.8; stroke-linecap: square"/>
     </g>
     <g id="line2d_6">
      <g>
       <use xlink:href="#m7773a783d5" x="197.981611" y="273.48" style="stroke: #000000; stroke-width: 0.8"/>
      </g>
     </g>
     <g id="text_3">
      <!-- 400 -->
      <g transform="translate(188.437861 288.078438) scale(0.1 -0.1)">
       <defs>
        <path id="DejaVuSans-34" d="M 2419 4116 
L 825 1625 
L 2419 1625 
L 2419 4116 
z
M 2253 4666 
L 3047 4666 
L 3047 1625 
L 3713 1625 
L 3713 1100 
L 3047 1100 
L 3047 0 
L 2419 0 
L 2419 1100 
L 313 1100 
L 313 1709 
L 2253 4666 
z
" transform="scale(0.015625)"/>
       </defs>
       <use xlink:href="#DejaVuSans-34"/>
       <use xlink:href="#DejaVuSans-30" transform="translate(63.623047 0)"/>
       <use xlink:href="#DejaVuSans-30" transform="translate(127.246094 0)"/>
      </g>
     </g>
    </g>
    <g id="xtick_4">
     <g id="line2d_7">
      <path d="M 275.081791 273.48 
L 275.081791 24 
" clip-path="url(#pf3c9dedad5)" style="fill: none; stroke: #d9dddd; stroke-width: 0.8; stroke-linecap: square"/>
     </g>
     <g id="line2d_8">
      <g>
       <use xlink:href="#m7773a783d5" x="275.081791" y="273.48" style="stroke: #000000; stroke-width: 0.8"/>
      </g>
     </g>
     <g id="text_4">
      <!-- 600 -->
      <g transform="translate(265.538041 288.078438) scale(0.1 -0.1)">
       <defs>
        <path id="DejaVuSans-36" d="M 2113 2584 
Q 1688 2584 1439 2293 
Q 1191 2003 1191 1497 
Q 1191 994 1439 701 
Q 1688 409 2113 409 
Q 2538 409 2786 701 
Q 3034 994 3034 1497 
Q 3034 2003 2786 2293 
Q 2538 2584 2113 2584 
z
M 3366 4563 
L 3366 3988 
Q 3128 4100 2886 4159 
Q 2644 4219 2406 4219 
Q 1781 4219 1451 3797 
Q 1122 3375 1075 2522 
Q 1259 2794 1537 2939 
Q 1816 3084 2150 3084 
Q 2853 3084 3261 2657 
Q 3669 2231 3669 1497 
Q 3669 778 3244 343 
Q 2819 -91 2113 -91 
Q 1303 -91 875 529 
Q 447 1150 447 2328 
Q 447 3434 972 4092 
Q 1497 4750 2381 4750 
Q 2619 4750 2861 4703 
Q 3103 4656 3366 4563 
z
" transform="scale(0.015625)"/>
       </defs>
       <use xlink:href="#DejaVuSans-36"/>
       <use xlink:href="#DejaVuSans-30" transform="translate(63.623047 0)"/>
       <use xlink:href="#DejaVuSans-30" transform="translate(127.246094 0)"/>
      </g>
     </g>
    </g>
    <g id="xtick_5">
     <g id="line2d_9">
      <path d="M 352.181972 273.48 
L 352.181972 24 
" clip-path="url(#pf3c9dedad5)" style="fill: none; stroke: #d9dddd; stroke-width: 0.8; stroke-linecap: square"/>
     </g>
     <g id="line2d_10">
      <g>
       <use xlink:href="#m7773a783d5" x="352.181972" y="273.48" style="stroke: #000000; stroke-width: 0.8"/>
      </g>
     </g>
     <g id="text_5">
      <!-- 800 -->
      <g transform="translate(342.638222 288.078438) scale(0.1 -0.1)">
       <defs>
        <path id="DejaVuSans-38" d="M 2034 2216 
Q 1584 2216 1326 1975 
Q 1069 1734 1069 1313 
Q 1069 891 1326 650 
Q 1584 409 2034 409 
Q 2484 409 2743 651 
Q 3003 894 3003 1313 
Q 3003 1734 2745 1975 
Q 2488 2216 2034 2216 
z
M 1403 2484 
Q 997 2584 770 2862 
Q 544 3141 544 3541 
Q 544 4100 942 4425 
Q 1341 4750 2034 4750 
Q 2731 4750 3128 4425 
Q 3525 4100 3525 3541 
Q 3525 3141 3298 2862 
Q 3072 2584 2669 2484 
Q 3125 2378 3379 2068 
Q 3634 1759 3634 1313 
Q 3634 634 3220 271 
Q 2806 -91 2034 -91 
Q 1263 -91 848 271 
Q 434 634 434 1313 
Q 434 1759 690 2068 
Q 947 2378 1403 2484 
z
M 1172 3481 
Q 1172 3119 1398 2916 
Q 1625 2713 2034 2713 
Q 2441 2713 2670 2916 
Q 2900 3119 2900 3481 
Q 2900 3844 2670 4047 
Q 2441 4250 2034 4250 
Q 1625 4250 1398 4047 
Q 1172 3844 1172 3481 
z
" transform="scale(0.015625)"/>
       </defs>
       <use xlink:href="#DejaVuSans-38"/>
       <use xlink:href="#DejaVuSans-30" transform="translate(63.623047 0)"/>
       <use xlink:href="#DejaVuSans-30" transform="translate(127.246094 0)"/>
      </g>
     </g>
    </g>
    <g id="xtick_6">
     <g id="line2d_11">
      <path d="M 429.282152 273.48 
L 429.282152 24 
" clip-path="url(#pf3c9dedad5)" style="fill: none; stroke: #d9dddd; stroke-width: 0.8; stroke-linecap: square"/>
     </g>
     <g id="line2d_12">
      <g>
       <use xlink:href="#m7773a783d5" x="429.282152" y="273.48" style="stroke: #000000; stroke-width: 0.8"/>
      </g>
     </g>
     <g id="text_6">
      <!-- 1000 -->
      <g transform="translate(416.557152 288.078438) scale(0.1 -0.1)">
       <defs>
        <path id="DejaVuSans-31" d="M 794 531 
L 1825 531 
L 1825 4091 
L 703 3866 
L 703 4441 
L 1819 4666 
L 2450 4666 
L 2450 531 
L 3481 531 
L 3481 0 
L 794 0 
L 794 531 
z
" transform="scale(0.015625)"/>
       </defs>
       <use xlink:href="#DejaVuSans-31"/>
       <use xlink:href="#DejaVuSans-30" transform="translate(63.623047 0)"/>
       <use xlink:href="#DejaVuSans-30" transform="translate(127.246094 0)"/>
       <use xlink:href="#DejaVuSans-30" transform="translate(190.869141 0)"/>
      </g>
     </g>
    </g>
    <g id="xtick_7">
     <g id="line2d_13">
      <path d="M 506.382333 273.48 
L 506.382333 24 
" clip-path="url(#pf3c9dedad5)" style="fill: none; stroke: #d9dddd; stroke-width: 0.8; stroke-linecap: square"/>
     </g>
     <g id="line2d_14">
      <g>
       <use xlink:href="#m7773a783d5" x="506.382333" y="273.48" style="stroke: #000000; stroke-width: 0.8"/>
      </g>
     </g>
     <g id="text_7">
      <!-- 1200 -->
      <g transform="translate(493.657333 288.078438) scale(0.1 -0.1)">
       <use xlink:href="#DejaVuSans-31"/>
       <use xlink:href="#DejaVuSans-32" transform="translate(63.623047 0)"/>
       <use xlink:href="#DejaVuSans-30" transform="translate(127.246094 0)"/>
       <use xlink:href="#DejaVuSans-30" transform="translate(190.869141 0)"/>
      </g>
     </g>
    </g>
    <g id="xtick_8">
     <g id="line2d_15">
      <path d="M 583.482513 273.48 
L 583.482513 24 
" clip-path="url(#pf3c9dedad5)" style="fill: none; stroke: #d9dddd; stroke-width: 0.8; stroke-linecap: square"/>
     </g>
     <g id="line2d_16">
      <g>
       <use xlink:href="#m7773a783d5" x="583.482513" y="273.48" style="stroke: #000000; stroke-width: 0.8"/>
      </g>
     </g>
     <g id="text_8">
      <!-- 1400 -->
      <g transform="translate(570.757513 288.078438) scale(0.1 -0.1)">
       <use xlink:href="#DejaVuSans-31"/>
       <use xlink:href="#DejaVuSans-34" transform="translate(63.623047 0)"/>
       <use xlink:href="#DejaVuSans-30" transform="translate(127.246094 0)"/>
       <use xlink:href="#DejaVuSans-30" transform="translate(190.869141 0)"/>
      </g>
     </g>
    </g>
    <g id="text_9">
     <!-- Frequency, cm$^{-1}$ -->
     <g transform="translate(294.28125 303.158125) scale(0.1 -0.1)">
      <defs>
       <path id="DejaVuSans-46" d="M 628 4666 
L 3309 4666 
L 3309 4134 
L 1259 4134 
L 1259 2759 
L 3109 2759 
L 3109 2228 
L 1259 2228 
L 1259 0 
L 628 0 
L 628 4666 
z
" transform="scale(0.015625)"/>
       <path id="DejaVuSans-72" d="M 2631 2963 
Q 2534 3019 2420 3045 
Q 2306 3072 2169 3072 
Q 1681 3072 1420 2755 
Q 1159 2438 1159 1844 
L 1159 0 
L 581 0 
L 581 3500 
L 1159 3500 
L 1159 2956 
Q 1341 3275 1631 3429 
Q 1922 3584 2338 3584 
Q 2397 3584 2469 3576 
Q 2541 3569 2628 3553 
L 2631 2963 
z
" transform="scale(0.015625)"/>
       <path id="DejaVuSans-65" d="M 3597 1894 
L 3597 1613 
L 953 1613 
Q 991 1019 1311 708 
Q 1631 397 2203 397 
Q 2534 397 2845 478 
Q 3156 559 3463 722 
L 3463 178 
Q 3153 47 2828 -22 
Q 2503 -91 2169 -91 
Q 1331 -91 842 396 
Q 353 884 353 1716 
Q 353 2575 817 3079 
Q 1281 3584 2069 3584 
Q 2775 3584 3186 3129 
Q 3597 2675 3597 1894 
z
M 3022 2063 
Q 3016 2534 2758 2815 
Q 2500 3097 2075 3097 
Q 1594 3097 1305 2825 
Q 1016 2553 972 2059 
L 3022 2063 
z
" transform="scale(0.015625)"/>
       <path id="DejaVuSans-71" d="M 947 1747 
Q 947 1113 1208 752 
Q 1469 391 1925 391 
Q 2381 391 2643 752 
Q 2906 1113 2906 1747 
Q 2906 2381 2643 2742 
Q 2381 3103 1925 3103 
Q 1469 3103 1208 2742 
Q 947 2381 947 1747 
z
M 2906 525 
Q 2725 213 2448 61 
Q 2172 -91 1784 -91 
Q 1150 -91 751 415 
Q 353 922 353 1747 
Q 353 2572 751 3078 
Q 1150 3584 1784 3584 
Q 2172 3584 2448 3432 
Q 2725 3281 2906 2969 
L 2906 3500 
L 3481 3500 
L 3481 -1331 
L 2906 -1331 
L 2906 525 
z
" transform="scale(0.015625)"/>
       <path id="DejaVuSans-75" d="M 544 1381 
L 544 3500 
L 1119 3500 
L 1119 1403 
Q 1119 906 1312 657 
Q 1506 409 1894 409 
Q 2359 409 2629 706 
Q 2900 1003 2900 1516 
L 2900 3500 
L 3475 3500 
L 3475 0 
L 2900 0 
L 2900 538 
Q 2691 219 2414 64 
Q 2138 -91 1772 -91 
Q 1169 -91 856 284 
Q 544 659 544 1381 
z
M 1991 3584 
L 1991 3584 
z
" transform="scale(0.015625)"/>
       <path id="DejaVuSans-6e" d="M 3513 2113 
L 3513 0 
L 2938 0 
L 2938 2094 
Q 2938 2591 2744 2837 
Q 2550 3084 2163 3084 
Q 1697 3084 1428 2787 
Q 1159 2491 1159 1978 
L 1159 0 
L 581 0 
L 581 3500 
L 1159 3500 
L 1159 2956 
Q 1366 3272 1645 3428 
Q 1925 3584 2291 3584 
Q 2894 3584 3203 3211 
Q 3513 2838 3513 2113 
z
" transform="scale(0.015625)"/>
       <path id="DejaVuSans-63" d="M 3122 3366 
L 3122 2828 
Q 2878 2963 2633 3030 
Q 2388 3097 2138 3097 
Q 1578 3097 1268 2742 
Q 959 2388 959 1747 
Q 959 1106 1268 751 
Q 1578 397 2138 397 
Q 2388 397 2633 464 
Q 2878 531 3122 666 
L 3122 134 
Q 2881 22 2623 -34 
Q 2366 -91 2075 -91 
Q 1284 -91 818 406 
Q 353 903 353 1747 
Q 353 2603 823 3093 
Q 1294 3584 2113 3584 
Q 2378 3584 2631 3529 
Q 2884 3475 3122 3366 
z
" transform="scale(0.015625)"/>
       <path id="DejaVuSans-79" d="M 2059 -325 
Q 1816 -950 1584 -1140 
Q 1353 -1331 966 -1331 
L 506 -1331 
L 506 -850 
L 844 -850 
Q 1081 -850 1212 -737 
Q 1344 -625 1503 -206 
L 1606 56 
L 191 3500 
L 800 3500 
L 1894 763 
L 2988 3500 
L 3597 3500 
L 2059 -325 
z
" transform="scale(0.015625)"/>
       <path id="DejaVuSans-2c" d="M 750 794 
L 1409 794 
L 1409 256 
L 897 -744 
L 494 -744 
L 750 256 
L 750 794 
z
" transform="scale(0.015625)"/>
       <path id="DejaVuSans-20" transform="scale(0.015625)"/>
       <path id="DejaVuSans-6d" d="M 3328 2828 
Q 3544 3216 3844 3400 
Q 4144 3584 4550 3584 
Q 5097 3584 5394 3201 
Q 5691 2819 5691 2113 
L 5691 0 
L 5113 0 
L 5113 2094 
Q 5113 2597 4934 2840 
Q 4756 3084 4391 3084 
Q 3944 3084 3684 2787 
Q 3425 2491 3425 1978 
L 3425 0 
L 2847 0 
L 2847 2094 
Q 2847 2600 2669 2842 
Q 2491 3084 2119 3084 
Q 1678 3084 1418 2786 
Q 1159 2488 1159 1978 
L 1159 0 
L 581 0 
L 581 3500 
L 1159 3500 
L 1159 2956 
Q 1356 3278 1631 3431 
Q 1906 3584 2284 3584 
Q 2666 3584 2933 3390 
Q 3200 3197 3328 2828 
z
" transform="scale(0.015625)"/>
       <path id="DejaVuSans-2212" d="M 678 2272 
L 4684 2272 
L 4684 1741 
L 678 1741 
L 678 2272 
z
" transform="scale(0.015625)"/>
      </defs>
      <use xlink:href="#DejaVuSans-46" transform="translate(0 0.684375)"/>
      <use xlink:href="#DejaVuSans-72" transform="translate(57.519531 0.684375)"/>
      <use xlink:href="#DejaVuSans-65" transform="translate(98.632812 0.684375)"/>
      <use xlink:href="#DejaVuSans-71" transform="translate(160.15625 0.684375)"/>
      <use xlink:href="#DejaVuSans-75" transform="translate(223.632812 0.684375)"/>
      <use xlink:href="#DejaVuSans-65" transform="translate(287.011719 0.684375)"/>
      <use xlink:href="#DejaVuSans-6e" transform="translate(348.535156 0.684375)"/>
      <use xlink:href="#DejaVuSans-63" transform="translate(411.914062 0.684375)"/>
      <use xlink:href="#DejaVuSans-79" transform="translate(466.894531 0.684375)"/>
      <use xlink:href="#DejaVuSans-2c" transform="translate(526.074219 0.684375)"/>
      <use xlink:href="#DejaVuSans-20" transform="translate(557.861328 0.684375)"/>
      <use xlink:href="#DejaVuSans-63" transform="translate(589.648438 0.684375)"/>
      <use xlink:href="#DejaVuSans-6d" transform="translate(644.628906 0.684375)"/>
      <use xlink:href="#DejaVuSans-2212" transform="translate(742.998047 38.965625) scale(0.7)"/>
      <use xlink:href="#DejaVuSans-31" transform="translate(801.650391 38.965625) scale(0.7)"/>
     </g>
    </g>
   </g>
   <g id="matplotlib.axis_2">
    <g id="ytick_1">
     <g id="line2d_17">
      <path d="M 43.78125 273.48 
L 629.68125 273.48 
" clip-path="url(#pf3c9dedad5)" style="fill: none; stroke: #d9dddd; stroke-width: 0.8; stroke-linecap: square"/>
     </g>
     <g id="line2d_18">
      <defs>
       <path id="mb69eca5ee2" d="M 0 0 
L -3.5 0 
" style="stroke: #000000; stroke-width: 0.8"/>
      </defs>
      <g>
       <use xlink:href="#mb69eca5ee2" x="43.78125" y="273.48" style="stroke: #000000; stroke-width: 0.8"/>
      </g>
     </g>
     <g id="text_10">
      <!-- 0.0 -->
      <g transform="translate(20.878125 277.279219) scale(0.1 -0.1)">
       <defs>
        <path id="DejaVuSans-2e" d="M 684 794 
L 1344 794 
L 1344 0 
L 684 0 
L 684 794 
z
" transform="scale(0.015625)"/>
       </defs>
       <use xlink:href="#DejaVuSans-30"/>
       <use xlink:href="#DejaVuSans-2e" transform="translate(63.623047 0)"/>
       <use xlink:href="#DejaVuSans-30" transform="translate(95.410156 0)"/>
      </g>
     </g>
    </g>
    <g id="ytick_2">
     <g id="line2d_19">
      <path d="M 43.78125 229.324248 
L 629.68125 229.324248 
" clip-path="url(#pf3c9dedad5)" style="fill: none; stroke: #d9dddd; stroke-width: 0.8; stroke-linecap: square"/>
     </g>
     <g id="line2d_20">
      <g>
       <use xlink:href="#mb69eca5ee2" x="43.78125" y="229.324248" style="stroke: #000000; stroke-width: 0.8"/>
      </g>
     </g>
     <g id="text_11">
      <!-- 0.2 -->
      <g transform="translate(20.878125 233.123467) scale(0.1 -0.1)">
       <use xlink:href="#DejaVuSans-30"/>
       <use xlink:href="#DejaVuSans-2e" transform="translate(63.623047 0)"/>
       <use xlink:href="#DejaVuSans-32" transform="translate(95.410156 0)"/>
      </g>
     </g>
    </g>
    <g id="ytick_3">
     <g id="line2d_21">
      <path d="M 43.78125 185.168496 
L 629.68125 185.168496 
" clip-path="url(#pf3c9dedad5)" style="fill: none; stroke: #d9dddd; stroke-width: 0.8; stroke-linecap: square"/>
     </g>
     <g id="line2d_22">
      <g>
       <use xlink:href="#mb69eca5ee2" x="43.78125" y="185.168496" style="stroke: #000000; stroke-width: 0.8"/>
      </g>
     </g>
     <g id="text_12">
      <!-- 0.4 -->
      <g transform="translate(20.878125 188.967714) scale(0.1 -0.1)">
       <use xlink:href="#DejaVuSans-30"/>
       <use xlink:href="#DejaVuSans-2e" transform="translate(63.623047 0)"/>
       <use xlink:href="#DejaVuSans-34" transform="translate(95.410156 0)"/>
      </g>
     </g>
    </g>
    <g id="ytick_4">
     <g id="line2d_23">
      <path d="M 43.78125 141.012743 
L 629.68125 141.012743 
" clip-path="url(#pf3c9dedad5)" style="fill: none; stroke: #d9dddd; stroke-width: 0.8; stroke-linecap: square"/>
     </g>
     <g id="line2d_24">
      <g>
       <use xlink:href="#mb69eca5ee2" x="43.78125" y="141.012743" style="stroke: #000000; stroke-width: 0.8"/>
      </g>
     </g>
     <g id="text_13">
      <!-- 0.6 -->
      <g transform="translate(20.878125 144.811962) scale(0.1 -0.1)">
       <use xlink:href="#DejaVuSans-30"/>
       <use xlink:href="#DejaVuSans-2e" transform="translate(63.623047 0)"/>
       <use xlink:href="#DejaVuSans-36" transform="translate(95.410156 0)"/>
      </g>
     </g>
    </g>
    <g id="ytick_5">
     <g id="line2d_25">
      <path d="M 43.78125 96.856991 
L 629.68125 96.856991 
" clip-path="url(#pf3c9dedad5)" style="fill: none; stroke: #d9dddd; stroke-width: 0.8; stroke-linecap: square"/>
     </g>
     <g id="line2d_26">
      <g>
       <use xlink:href="#mb69eca5ee2" x="43.78125" y="96.856991" style="stroke: #000000; stroke-width: 0.8"/>
      </g>
     </g>
     <g id="text_14">
      <!-- 0.8 -->
      <g transform="translate(20.878125 100.65621) scale(0.1 -0.1)">
       <use xlink:href="#DejaVuSans-30"/>
       <use xlink:href="#DejaVuSans-2e" transform="translate(63.623047 0)"/>
       <use xlink:href="#DejaVuSans-38" transform="translate(95.410156 0)"/>
      </g>
     </g>
    </g>
    <g id="ytick_6">
     <g id="line2d_27">
      <path d="M 43.78125 52.701239 
L 629.68125 52.701239 
" clip-path="url(#pf3c9dedad5)" style="fill: none; stroke: #d9dddd; stroke-width: 0.8; stroke-linecap: square"/>
     </g>
     <g id="line2d_28">
      <g>
       <use xlink:href="#mb69eca5ee2" x="43.78125" y="52.701239" style="stroke: #000000; stroke-width: 0.8"/>
      </g>
     </g>
     <g id="text_15">
      <!-- 1.0 -->
      <g transform="translate(20.878125 56.500458) scale(0.1 -0.1)">
       <use xlink:href="#DejaVuSans-31"/>
       <use xlink:href="#DejaVuSans-2e" transform="translate(63.623047 0)"/>
       <use xlink:href="#DejaVuSans-30" transform="translate(95.410156 0)"/>
      </g>
     </g>
    </g>
    <g id="text_16">
     <!-- Normalized intensity -->
     <g transform="translate(14.798438 200.361094) rotate(-90) scale(0.1 -0.1)">
      <defs>
       <path id="DejaVuSans-4e" d="M 628 4666 
L 1478 4666 
L 3547 763 
L 3547 4666 
L 4159 4666 
L 4159 0 
L 3309 0 
L 1241 3903 
L 1241 0 
L 628 0 
L 628 4666 
z
" transform="scale(0.015625)"/>
       <path id="DejaVuSans-6f" d="M 1959 3097 
Q 1497 3097 1228 2736 
Q 959 2375 959 1747 
Q 959 1119 1226 758 
Q 1494 397 1959 397 
Q 2419 397 2687 759 
Q 2956 1122 2956 1747 
Q 2956 2369 2687 2733 
Q 2419 3097 1959 3097 
z
M 1959 3584 
Q 2709 3584 3137 3096 
Q 3566 2609 3566 1747 
Q 3566 888 3137 398 
Q 2709 -91 1959 -91 
Q 1206 -91 779 398 
Q 353 888 353 1747 
Q 353 2609 779 3096 
Q 1206 3584 1959 3584 
z
" transform="scale(0.015625)"/>
       <path id="DejaVuSans-61" d="M 2194 1759 
Q 1497 1759 1228 1600 
Q 959 1441 959 1056 
Q 959 750 1161 570 
Q 1363 391 1709 391 
Q 2188 391 2477 730 
Q 2766 1069 2766 1631 
L 2766 1759 
L 2194 1759 
z
M 3341 1997 
L 3341 0 
L 2766 0 
L 2766 531 
Q 2569 213 2275 61 
Q 1981 -91 1556 -91 
Q 1019 -91 701 211 
Q 384 513 384 1019 
Q 384 1609 779 1909 
Q 1175 2209 1959 2209 
L 2766 2209 
L 2766 2266 
Q 2766 2663 2505 2880 
Q 2244 3097 1772 3097 
Q 1472 3097 1187 3025 
Q 903 2953 641 2809 
L 641 3341 
Q 956 3463 1253 3523 
Q 1550 3584 1831 3584 
Q 2591 3584 2966 3190 
Q 3341 2797 3341 1997 
z
" transform="scale(0.015625)"/>
       <path id="DejaVuSans-6c" d="M 603 4863 
L 1178 4863 
L 1178 0 
L 603 0 
L 603 4863 
z
" transform="scale(0.015625)"/>
       <path id="DejaVuSans-69" d="M 603 3500 
L 1178 3500 
L 1178 0 
L 603 0 
L 603 3500 
z
M 603 4863 
L 1178 4863 
L 1178 4134 
L 603 4134 
L 603 4863 
z
" transform="scale(0.015625)"/>
       <path id="DejaVuSans-7a" d="M 353 3500 
L 3084 3500 
L 3084 2975 
L 922 459 
L 3084 459 
L 3084 0 
L 275 0 
L 275 525 
L 2438 3041 
L 353 3041 
L 353 3500 
z
" transform="scale(0.015625)"/>
       <path id="DejaVuSans-64" d="M 2906 2969 
L 2906 4863 
L 3481 4863 
L 3481 0 
L 2906 0 
L 2906 525 
Q 2725 213 2448 61 
Q 2172 -91 1784 -91 
Q 1150 -91 751 415 
Q 353 922 353 1747 
Q 353 2572 751 3078 
Q 1150 3584 1784 3584 
Q 2172 3584 2448 3432 
Q 2725 3281 2906 2969 
z
M 947 1747 
Q 947 1113 1208 752 
Q 1469 391 1925 391 
Q 2381 391 2643 752 
Q 2906 1113 2906 1747 
Q 2906 2381 2643 2742 
Q 2381 3103 1925 3103 
Q 1469 3103 1208 2742 
Q 947 2381 947 1747 
z
" transform="scale(0.015625)"/>
       <path id="DejaVuSans-74" d="M 1172 4494 
L 1172 3500 
L 2356 3500 
L 2356 3053 
L 1172 3053 
L 1172 1153 
Q 1172 725 1289 603 
Q 1406 481 1766 481 
L 2356 481 
L 2356 0 
L 1766 0 
Q 1100 0 847 248 
Q 594 497 594 1153 
L 594 3053 
L 172 3053 
L 172 3500 
L 594 3500 
L 594 4494 
L 1172 4494 
z
" transform="scale(0.015625)"/>
       <path id="DejaVuSans-73" d="M 2834 3397 
L 2834 2853 
Q 2591 2978 2328 3040 
Q 2066 3103 1784 3103 
Q 1356 3103 1142 2972 
Q 928 2841 928 2578 
Q 928 2378 1081 2264 
Q 1234 2150 1697 2047 
L 1894 2003 
Q 2506 1872 2764 1633 
Q 3022 1394 3022 966 
Q 3022 478 2636 193 
Q 2250 -91 1575 -91 
Q 1294 -91 989 -36 
Q 684 19 347 128 
L 347 722 
Q 666 556 975 473 
Q 1284 391 1588 391 
Q 1994 391 2212 530 
Q 2431 669 2431 922 
Q 2431 1156 2273 1281 
Q 2116 1406 1581 1522 
L 1381 1569 
Q 847 1681 609 1914 
Q 372 2147 372 2553 
Q 372 3047 722 3315 
Q 1072 3584 1716 3584 
Q 2034 3584 2315 3537 
Q 2597 3491 2834 3397 
z
" transform="scale(0.015625)"/>
      </defs>
      <use xlink:href="#DejaVuSans-4e"/>
      <use xlink:href="#DejaVuSans-6f" transform="translate(74.804688 0)"/>
      <use xlink:href="#DejaVuSans-72" transform="translate(135.986328 0)"/>
      <use xlink:href="#DejaVuSans-6d" transform="translate(175.349609 0)"/>
      <use xlink:href="#DejaVuSans-61" transform="translate(272.761719 0)"/>
      <use xlink:href="#DejaVuSans-6c" transform="translate(334.041016 0)"/>
      <use xlink:href="#DejaVuSans-69" transform="translate(361.824219 0)"/>
      <use xlink:href="#DejaVuSans-7a" transform="translate(389.607422 0)"/>
      <use xlink:href="#DejaVuSans-65" transform="translate(442.097656 0)"/>
      <use xlink:href="#DejaVuSans-64" transform="translate(503.621094 0)"/>
      <use xlink:href="#DejaVuSans-20" transform="translate(567.097656 0)"/>
      <use xlink:href="#DejaVuSans-69" transform="translate(598.884766 0)"/>
      <use xlink:href="#DejaVuSans-6e" transform="translate(626.667969 0)"/>
      <use xlink:href="#DejaVuSans-74" transform="translate(690.046875 0)"/>
      <use xlink:href="#DejaVuSans-65" transform="translate(729.255859 0)"/>
      <use xlink:href="#DejaVuSans-6e" transform="translate(790.779297 0)"/>
      <use xlink:href="#DejaVuSans-73" transform="translate(854.158203 0)"/>
      <use xlink:href="#DejaVuSans-69" transform="translate(906.257812 0)"/>
      <use xlink:href="#DejaVuSans-74" transform="translate(934.041016 0)"/>
      <use xlink:href="#DejaVuSans-79" transform="translate(973.25 0)"/>
     </g>
    </g>
   </g>
   <g id="FillBetweenPolyCollection_1">
    <defs>
     <path id="m642587f7cc" d="M 43.78125 -38.978125 
L 43.78125 -38.978125 
L 44.432974 -38.978125 
L 45.084698 -38.978125 
L 45.736422 -38.978125 
L 46.388147 -38.978125 
L 47.039871 -38.978125 
L 47.691595 -38.978125 
L 48.343319 -38.978125 
L 48.995043 -38.978125 
L 49.646767 -38.978125 
L 50.298491 -38.978125 
L 50.950216 -38.978125 
L 51.60194 -38.978125 
L 52.253664 -38.978125 
L 52.905388 -38.978125 
L 53.557112 -38.978125 
L 54.208836 -38.978125 
L 54.86056 -38.978125 
L 55.512284 -38.978125 
L 56.164009 -38.978125 
L 56.815733 -38.978125 
L 57.467457 -38.978125 
L 58.119181 -38.978125 
L 58.770905 -38.978125 
L 59.422629 -38.978125 
L 60.074353 -38.978125 
L 60.726078 -38.978125 
L 61.377802 -38.978125 
L 62.029526 -38.978125 
L 62.68125 -38.978125 
L 63.332974 -38.978125 
L 63.984698 -38.978125 
L 64.636422 -38.978125 
L 65.288147 -38.978125 
L 65.939871 -38.978125 
L 66.591595 -38.978125 
L 67.243319 -38.978125 
L 67.895043 -38.978125 
L 68.546767 -38.978125 
L 69.198491 -38.978125 
L 69.850216 -38.978125 
L 70.50194 -38.978125 
L 71.153664 -38.978125 
L 71.805388 -38.978125 
L 72.457112 -38.978125 
L 73.108836 -38.978125 
L 73.76056 -38.978125 
L 74.412284 -38.978125 
L 75.064009 -38.978125 
L 75.715733 -38.978125 
L 76.367457 -38.978125 
L 77.019181 -38.978125 
L 77.670905 -38.978125 
L 78.322629 -38.978125 
L 78.974353 -38.978125 
L 79.626078 -38.978125 
L 80.277802 -38.978125 
L 80.929526 -38.978125 
L 81.58125 -38.978126 
L 82.232974 -38.978126 
L 82.884698 -38.978127 
L 83.536422 -38.978127 
L 84.188147 -38.978129 
L 84.839871 -38.978131 
L 85.491595 -38.978134 
L 86.143319 -38.97814 
L 86.795043 -38.978148 
L 87.446767 -38.978159 
L 88.098491 -38.978177 
L 88.750216 -38.978204 
L 89.40194 -38.978244 
L 90.053664 -38.978302 
L 90.705388 -38.978388 
L 91.357112 -38.978513 
L 92.008836 -38.978693 
L 92.66056 -38.978953 
L 93.312284 -38.979325 
L 93.964009 -38.979853 
L 94.615733 -38.980599 
L 95.267457 -38.981647 
L 95.919181 -38.983108 
L 96.570905 -38.985135 
L 97.222629 -38.987928 
L 97.874353 -38.991752 
L 98.526078 -38.996957 
L 99.177802 -39.003997 
L 99.829526 -39.013459 
L 100.48125 -39.026098 
L 101.132974 -39.042874 
L 101.784698 -39.065002 
L 102.436422 -39.094006 
L 103.088147 -39.131784 
L 103.739871 -39.180677 
L 104.391595 -39.243555 
L 105.043319 -39.323905 
L 105.695043 -39.425926 
L 106.346767 -39.554633 
L 106.998491 -39.715963 
L 107.650216 -39.91688 
L 108.30194 -40.165476 
L 108.953664 -40.471061 
L 109.605388 -40.844242 
L 110.257112 -41.29697 
L 110.908836 -41.842568 
L 111.56056 -42.495705 
L 112.212284 -43.272335 
L 112.864009 -44.189567 
L 113.515733 -45.26548 
L 114.167457 -46.518857 
L 114.819181 -47.968844 
L 115.470905 -49.634532 
L 116.122629 -51.534451 
L 116.774353 -53.685995 
L 117.426078 -56.104776 
L 118.077802 -58.803916 
L 118.729526 -61.793312 
L 119.38125 -65.078876 
L 120.032974 -68.661782 
L 120.684698 -72.537763 
L 121.336422 -76.696468 
L 121.988147 -81.120929 
L 122.639871 -85.787168 
L 123.291595 -90.663971 
L 123.943319 -95.712867 
L 124.595043 -100.88832 
L 125.246767 -106.13817 
L 125.898491 -111.404308 
L 126.550216 -116.623605 
L 127.20194 -121.72906 
L 127.853664 -126.65116 
L 128.505388 -131.319414 
L 129.157112 -135.664004 
L 129.808836 -139.617526 
L 130.46056 -143.116737 
L 131.112284 -146.104266 
L 131.764009 -148.530218 
L 132.415733 -150.353615 
L 133.067457 -151.543615 
L 133.719181 -152.080473 
L 134.370905 -151.956198 
L 135.022629 -151.174882 
L 135.674353 -149.752708 
L 136.326078 -147.717615 
L 136.977802 -145.108664 
L 137.629526 -141.975113 
L 138.28125 -138.375265 
L 138.932974 -134.375118 
L 139.584698 -130.046894 
L 140.236422 -125.467487 
L 140.888147 -120.71691 
L 141.539871 -115.876773 
L 142.191595 -111.028873 
L 142.843319 -106.253903 
L 143.495043 -101.630336 
L 144.146767 -97.2335 
L 144.798491 -93.134836 
L 145.450216 -89.401351 
L 146.10194 -86.095249 
L 146.753664 -83.273697 
L 147.405388 -80.988717 
L 148.057112 -79.287148 
L 148.708836 -78.210645 
L 149.36056 -77.795666 
L 150.012284 -78.073423 
L 150.664009 -79.069749 
L 151.315733 -80.804866 
L 151.967457 -83.293034 
L 152.619181 -86.542081 
L 153.270905 -90.552819 
L 153.922629 -95.318366 
L 154.574353 -100.823406 
L 155.226078 -107.043427 
L 155.877802 -113.943992 
L 156.529526 -121.480085 
L 157.18125 -129.595615 
L 157.832974 -138.223102 
L 158.484698 -147.28364 
L 159.136422 -156.687153 
L 159.788147 -166.332994 
L 160.439871 -176.110926 
L 161.091595 -185.902466 
L 161.743319 -195.582616 
L 162.395043 -205.021938 
L 163.046767 -214.088936 
L 163.698491 -222.652688 
L 164.350216 -230.585657 
L 165.00194 -237.766585 
L 165.653664 -244.083391 
L 166.305388 -249.435965 
L 166.957112 -253.738756 
L 167.608836 -256.923076 
L 168.26056 -258.93901 
L 168.912284 -259.756886 
L 169.564009 -259.368228 
L 170.215733 -257.786164 
L 170.867457 -255.045275 
L 171.519181 -251.200876 
L 172.170905 -246.327775 
L 172.822629 -240.518535 
L 173.474353 -233.881308 
L 174.126078 -226.537319 
L 174.777802 -218.618076 
L 175.429526 -210.262405 
L 176.08125 -201.613392 
L 176.732974 -192.815335 
L 177.384698 -184.010764 
L 178.036422 -175.337639 
L 178.688147 -166.926749 
L 179.339871 -158.899394 
L 179.991595 -151.365365 
L 180.643319 -144.421262 
L 181.295043 -138.149145 
L 181.946767 -132.61553 
L 182.598491 -127.870722 
L 183.250216 -123.948464 
L 183.90194 -120.865889 
L 184.553664 -118.623753 
L 185.205388 -117.206929 
L 185.857112 -116.585136 
L 186.508836 -116.713892 
L 187.16056 -117.535664 
L 187.812284 -118.981207 
L 188.464009 -120.971073 
L 189.115733 -123.417264 
L 189.767457 -126.225031 
L 190.419181 -129.294773 
L 191.070905 -132.524029 
L 191.722629 -135.809531 
L 192.374353 -139.049262 
L 193.026078 -142.144515 
L 193.677802 -145.001869 
L 194.329526 -147.535067 
L 194.98125 -149.666729 
L 195.632974 -151.329857 
L 196.284698 -152.469088 
L 196.936422 -153.041662 
L 197.588147 -153.018063 
L 198.239871 -152.382316 
L 198.891595 -151.131944 
L 199.543319 -149.277561 
L 200.195043 -146.842141 
L 200.846767 -143.859977 
L 201.498491 -140.375372 
L 202.150216 -136.441114 
L 202.80194 -132.116783 
L 203.453664 -127.466956 
L 204.105388 -122.559374 
L 204.757112 -117.463128 
L 205.408836 -112.246925 
L 206.06056 -106.977486 
L 206.712284 -101.718124 
L 207.364009 -96.527528 
L 208.015733 -91.458799 
L 208.667457 -86.558721 
L 209.319181 -81.867303 
L 209.970905 -77.417562 
L 210.622629 -73.23555 
L 211.274353 -69.340591 
L 211.926078 -65.745706 
L 212.577802 -62.458196 
L 213.229526 -59.480342 
L 213.88125 -56.810201 
L 214.532974 -54.442451 
L 215.184698 -52.369263 
L 215.836422 -50.581167 
L 216.488147 -49.067893 
L 217.139871 -47.819155 
L 217.791595 -46.825373 
L 218.443319 -46.078309 
L 219.095043 -45.571621 
L 219.746767 -45.301301 
L 220.398491 -45.266022 
L 221.050216 -45.467374 
L 221.70194 -45.90998 
L 222.353664 -46.601511 
L 223.005388 -47.552582 
L 223.657112 -48.776541 
L 224.308836 -50.289145 
L 224.96056 -52.108133 
L 225.612284 -54.252695 
L 226.264009 -56.74285 
L 226.915733 -59.598737 
L 227.567457 -62.839833 
L 228.219181 -66.484112 
L 228.870905 -70.547167 
L 229.522629 -75.041306 
L 230.174353 -79.974661 
L 230.826078 -85.350319 
L 231.477802 -91.165512 
L 232.129526 -97.410895 
L 232.78125 -104.069931 
L 233.432974 -111.118422 
L 234.084698 -118.524189 
L 234.736422 -126.246947 
L 235.388147 -134.238369 
L 236.039871 -142.442354 
L 236.691595 -150.795507 
L 237.343319 -159.227826 
L 237.995043 -167.663581 
L 238.646767 -176.022371 
L 239.298491 -184.220346 
L 239.950216 -192.171548 
L 240.60194 -199.789361 
L 241.253664 -206.988017 
L 241.905388 -213.684134 
L 242.557112 -219.798242 
L 243.208836 -225.256262 
L 243.86056 -229.990907 
L 244.512284 -233.942963 
L 245.164009 -237.062423 
L 245.815733 -239.309461 
L 246.467457 -240.655194 
L 247.119181 -241.082253 
L 247.770905 -240.585117 
L 248.422629 -239.170223 
L 249.074353 -236.855839 
L 249.726078 -233.671711 
L 250.377802 -229.658488 
L 251.029526 -224.86693 
L 251.68125 -219.356935 
L 252.332974 -213.196393 
L 252.984698 -206.459892 
L 253.636422 -199.227324 
L 254.288147 -191.5824 
L 254.939871 -183.611132 
L 255.591595 -175.400306 
L 256.243319 -167.035986 
L 256.895043 -158.602092 
L 257.546767 -150.17908 
L 258.198491 -141.842753 
L 258.850216 -133.663242 
L 259.50194 -125.704171 
L 260.153664 -118.022018 
L 260.805388 -110.66569 
L 261.457112 -103.676316 
L 262.108836 -97.087238 
L 262.76056 -90.924213 
L 263.412284 -85.205789 
L 264.064009 -79.943846 
L 264.715733 -75.14427 
L 265.367457 -70.80773 
L 266.019181 -66.930537 
L 266.670905 -63.505539 
L 267.322629 -60.523026 
L 267.974353 -57.97162 
L 268.626078 -55.839111 
L 269.277802 -54.113214 
L 269.929526 -52.782231 
L 270.58125 -51.83559 
L 271.232974 -51.264246 
L 271.884698 -51.060942 
L 272.536422 -51.220302 
L 273.188147 -51.738773 
L 273.839871 -52.614413 
L 274.491595 -53.846523 
L 275.143319 -55.435139 
L 275.795043 -57.38041 
L 276.446767 -59.681861 
L 277.098491 -62.337595 
L 277.750216 -65.343432 
L 278.40194 -68.692045 
L 279.053664 -72.372118 
L 279.705388 -76.367555 
L 280.357112 -80.656798 
L 281.008836 -85.212279 
L 281.66056 -90.000035 
L 282.312284 -94.979539 
L 282.964009 -100.103751 
L 283.615733 -105.319416 
L 284.267457 -110.567615 
L 284.919181 -115.784576 
L 285.570905 -120.902721 
L 286.222629 -125.851932 
L 286.874353 -130.561005 
L 287.526078 -134.959241 
L 288.177802 -138.97813 
L 288.829526 -142.553067 
L 289.48125 -145.625028 
L 290.132974 -148.142165 
L 290.784698 -150.061228 
L 291.436422 -151.348789 
L 292.088147 -151.982196 
L 292.739871 -151.950221 
L 293.391595 -151.253384 
L 294.043319 -149.903939 
L 294.695043 -147.925501 
L 295.346767 -145.352364 
L 295.998491 -142.228506 
L 296.650216 -138.606338 
L 297.30194 -134.545241 
L 297.953664 -130.109949 
L 298.605388 -125.368845 
L 299.257112 -120.392212 
L 299.908836 -115.250532 
L 300.56056 -110.012862 
L 301.212284 -104.745351 
L 301.864009 -99.509941 
L 302.515733 -94.363271 
L 303.167457 -89.355824 
L 303.819181 -84.531313 
L 304.470905 -79.926309 
L 305.122629 -75.570108 
L 305.774353 -71.484809 
L 306.426078 -67.685588 
L 307.077802 -64.181133 
L 307.729526 -60.974209 
L 308.38125 -58.062318 
L 309.032974 -55.438421 
L 309.684698 -53.091697 
L 310.336422 -51.008292 
L 310.988147 -49.17206 
L 311.639871 -47.565246 
L 312.291595 -46.169119 
L 312.943319 -44.964528 
L 313.595043 -43.932387 
L 314.246767 -43.054072 
L 314.898491 -42.31174 
L 315.550216 -41.688575 
L 316.20194 -41.168959 
L 316.853664 -40.738581 
L 317.505388 -40.384494 
L 318.157112 -40.09512 
L 318.808836 -39.860222 
L 319.46056 -39.67085 
L 320.112284 -39.519263 
L 320.764009 -39.398833 
L 321.415733 -39.303955 
L 322.067457 -39.229945 
L 322.719181 -39.172941 
L 323.370905 -39.129816 
L 324.022629 -39.098096 
L 324.674353 -39.075888 
L 325.326078 -39.061827 
L 325.977802 -39.055026 
L 326.629526 -39.05505 
L 327.28125 -39.0619 
L 327.932974 -39.076015 
L 328.584698 -39.098284 
L 329.236422 -39.130077 
L 329.888147 -39.17329 
L 330.539871 -39.230402 
L 331.191595 -39.304545 
L 331.843319 -39.399585 
L 332.495043 -39.520214 
L 333.146767 -39.672044 
L 333.798491 -39.861707 
L 334.450216 -40.096956 
L 335.10194 -40.386749 
L 335.753664 -40.741331 
L 336.405388 -41.17229 
L 337.057112 -41.692584 
L 337.708836 -42.316532 
L 338.36056 -43.059762 
L 339.012284 -43.939097 
L 339.664009 -44.972386 
L 340.315733 -46.178259 
L 340.967457 -47.575803 
L 341.619181 -49.184169 
L 342.270905 -51.022081 
L 342.922629 -53.107285 
L 343.574353 -55.455916 
L 344.226078 -58.081807 
L 344.877802 -60.995757 
L 345.529526 -64.204773 
L 346.18125 -67.71132 
L 346.832974 -71.512593 
L 347.484698 -75.599861 
L 348.136422 -79.9579 
L 348.788147 -84.564561 
L 349.439871 -89.390496 
L 350.091595 -94.399084 
L 350.743319 -99.546562 
L 351.395043 -104.782403 
L 352.046767 -110.049923 
L 352.698491 -115.28715 
L 353.350216 -120.427908 
L 354.00194 -125.403123 
L 354.653664 -130.142309 
L 355.305388 -134.575187 
L 355.957112 -138.633393 
L 356.608836 -142.25222 
L 357.26056 -145.372327 
L 357.912284 -147.941349 
L 358.564009 -149.915364 
L 359.215733 -151.260137 
L 359.867457 -151.952107 
L 360.519181 -151.97908 
L 361.170905 -151.340579 
L 361.822629 -150.04786 
L 362.474353 -148.123587 
L 363.126078 -145.601162 
L 363.777802 -142.523771 
L 364.429526 -138.943144 
L 365.08125 -134.91812 
L 365.732974 -130.513033 
L 366.384698 -125.796016 
L 367.036422 -120.837257 
L 367.688147 -115.707289 
L 368.339871 -110.475355 
L 368.991595 -105.207917 
L 369.643319 -99.967332 
L 370.295043 -94.810745 
L 370.946767 -89.789208 
L 371.598491 -84.947047 
L 372.250216 -80.321469 
L 372.90194 -75.94241 
L 373.553664 -71.832594 
L 374.205388 -68.007789 
L 374.857112 -64.477233 
L 375.508836 -61.244186 
L 376.16056 -58.306583 
L 376.812284 -55.657757 
L 377.464009 -53.287186 
L 378.115733 -51.181255 
L 378.767457 -49.323988 
L 379.419181 -47.697748 
L 380.070905 -46.283862 
L 380.722629 -45.063199 
L 381.374353 -44.016646 
L 382.026078 -43.125523 
L 382.677802 -42.371905 
L 383.329526 -41.738876 
L 383.98125 -41.2107 
L 384.632974 -40.772943 
L 385.284698 -40.412525 
L 385.936422 -40.117733 
L 386.588147 -39.878194 
L 387.239871 -39.68482 
L 387.891595 -39.529724 
L 388.543319 -39.406131 
L 389.195043 -39.308276 
L 389.846767 -39.231294 
L 390.498491 -39.171119 
L 391.150216 -39.12438 
L 391.80194 -39.088308 
L 392.453664 -39.060644 
L 393.105388 -39.039562 
L 393.757112 -39.023597 
L 394.408836 -39.011582 
L 395.06056 -39.002597 
L 395.712284 -38.995919 
L 396.364009 -38.990988 
L 397.015733 -38.987368 
L 397.667457 -38.984728 
L 398.319181 -38.982814 
L 398.970905 -38.981436 
L 399.622629 -38.980448 
L 400.274353 -38.979746 
L 400.926078 -38.979249 
L 401.577802 -38.9789 
L 402.229526 -38.978656 
L 402.88125 -38.978487 
L 403.532974 -38.97837 
L 404.184698 -38.97829 
L 404.836422 -38.978236 
L 405.488147 -38.978199 
L 406.139871 -38.978174 
L 406.791595 -38.978157 
L 407.443319 -38.978146 
L 408.095043 -38.978139 
L 408.746767 -38.978134 
L 409.398491 -38.978131 
L 410.050216 -38.978129 
L 410.70194 -38.978127 
L 411.353664 -38.978127 
L 412.005388 -38.978126 
L 412.657112 -38.978126 
L 413.308836 -38.978127 
L 413.96056 -38.978127 
L 414.612284 -38.978129 
L 415.264009 -38.97813 
L 415.915733 -38.978133 
L 416.567457 -38.978138 
L 417.219181 -38.978145 
L 417.870905 -38.978156 
L 418.522629 -38.978172 
L 419.174353 -38.978195 
L 419.826078 -38.978231 
L 420.477802 -38.978284 
L 421.129526 -38.978362 
L 421.78125 -38.978476 
L 422.432974 -38.978642 
L 423.084698 -38.978881 
L 423.736422 -38.979225 
L 424.388147 -38.979717 
L 425.039871 -38.980415 
L 425.691595 -38.981399 
L 426.343319 -38.98278 
L 426.995043 -38.984705 
L 427.646767 -38.987372 
L 428.298491 -38.991045 
L 428.950216 -38.996074 
L 429.60194 -39.002916 
L 430.253664 -39.012169 
L 430.905388 -39.024607 
L 431.557112 -39.041224 
L 432.208836 -39.063291 
L 432.86056 -39.092415 
L 433.512284 -39.13062 
L 434.164009 -39.180432 
L 434.815733 -39.24498 
L 435.467457 -39.328113 
L 436.119181 -39.434526 
L 436.770905 -39.569902 
L 437.422629 -39.741066 
L 438.074353 -39.956145 
L 438.726078 -40.224738 
L 439.377802 -40.558086 
L 440.029526 -40.969231 
L 440.68125 -41.473175 
L 441.332974 -42.087007 
L 441.984698 -42.830005 
L 442.636422 -43.723691 
L 443.288147 -44.791839 
L 443.939871 -46.060405 
L 444.591595 -47.557387 
L 445.243319 -49.312582 
L 445.895043 -51.357249 
L 446.546767 -53.723653 
L 447.198491 -56.444491 
L 447.850216 -59.552196 
L 448.50194 -63.078125 
L 449.153664 -67.05163 
L 449.805388 -71.499035 
L 450.457112 -76.442528 
L 451.108836 -81.899006 
L 451.76056 -87.878896 
L 452.412284 -94.384991 
L 453.064009 -101.411347 
L 453.715733 -108.942285 
L 454.367457 -116.951541 
L 455.019181 -125.401622 
L 455.670905 -134.2434 
L 456.322629 -143.415999 
L 456.974353 -152.846992 
L 457.626078 -162.45295 
L 458.277802 -172.140341 
L 458.929526 -181.806791 
L 459.58125 -191.342687 
L 460.232974 -200.633101 
L 460.884698 -209.559984 
L 461.536422 -218.004588 
L 462.188147 -225.85004 
L 462.839871 -232.983991 
L 463.491595 -239.301267 
L 464.143319 -244.706431 
L 464.795043 -249.116157 
L 465.446767 -252.46136 
L 466.098491 -254.688985 
L 466.750216 -255.763395 
L 467.40194 -255.667314 
L 468.053664 -254.402291 
L 468.705388 -251.988653 
L 469.357112 -248.464967 
L 470.008836 -243.887022 
L 470.66056 -238.326368 
L 471.312284 -231.868468 
L 471.964009 -224.610524 
L 472.615733 -216.659063 
L 473.267457 -208.127359 
L 473.919181 -199.132772 
L 474.570905 -189.794109 
L 475.222629 -180.229067 
L 475.874353 -170.551849 
L 476.526078 -160.871004 
L 477.177802 -151.28756 
L 477.829526 -141.893469 
L 478.48125 -132.77041 
L 479.132974 -123.988946 
L 479.784698 -115.608034 
L 480.436422 -107.674879 
L 481.088147 -100.225099 
L 481.739871 -93.283174 
L 482.391595 -86.863126 
L 483.043319 -80.969396 
L 483.695043 -75.597862 
L 484.346767 -70.736957 
L 484.998491 -66.368836 
L 485.650216 -62.470555 
L 486.30194 -59.01522 
L 486.953664 -55.973084 
L 487.605388 -53.312552 
L 488.257112 -51.001094 
L 488.908836 -49.006042 
L 489.56056 -47.295258 
L 490.212284 -45.837695 
L 490.864009 -44.603829 
L 491.515733 -43.565985 
L 492.167457 -42.698555 
L 492.819181 -41.978134 
L 493.470905 -41.383566 
L 494.122629 -40.895939 
L 494.774353 -40.498513 
L 495.426078 -40.176618 
L 496.077802 -39.917516 
L 496.729526 -39.710248 
L 497.38125 -39.545468 
L 498.032974 -39.415272 
L 498.684698 -39.313035 
L 499.336422 -39.233244 
L 499.988147 -39.171353 
L 500.639871 -39.12364 
L 501.291595 -39.087081 
L 501.943319 -39.05924 
L 502.595043 -39.038166 
L 503.246767 -39.022312 
L 503.898491 -39.010458 
L 504.550216 -39.001648 
L 505.20194 -38.99514 
L 505.853664 -38.990361 
L 506.505388 -38.986874 
L 507.157112 -38.984345 
L 507.808836 -38.982521 
L 508.46056 -38.981215 
L 509.112284 -38.980285 
L 509.764009 -38.979626 
L 510.415733 -38.979164 
L 511.067457 -38.978842 
L 511.719181 -38.97862 
L 512.370905 -38.978469 
L 513.022629 -38.97837 
L 513.674353 -38.978308 
L 514.326078 -38.978277 
L 514.977802 -38.97827 
L 515.629526 -38.978287 
L 516.28125 -38.97833 
L 516.932974 -38.978406 
L 517.584698 -38.978523 
L 518.236422 -38.978699 
L 518.888147 -38.978956 
L 519.539871 -38.979324 
L 520.191595 -38.97985 
L 520.843319 -38.980593 
L 521.495043 -38.981638 
L 522.146767 -38.983095 
L 522.798491 -38.985116 
L 523.450216 -38.987901 
L 524.10194 -38.991716 
L 524.753664 -38.996908 
L 525.405388 -39.00393 
L 526.057112 -39.01337 
L 526.708836 -39.025979 
L 527.36056 -39.042717 
L 528.012284 -39.064795 
L 528.664009 -39.093736 
L 529.315733 -39.131433 
L 529.967457 -39.180224 
L 530.619181 -39.242974 
L 531.270905 -39.323165 
L 531.922629 -39.424989 
L 532.574353 -39.553454 
L 533.226078 -39.714491 
L 533.877802 -39.915052 
L 534.529526 -40.163221 
L 535.18125 -40.468299 
L 535.832974 -40.840879 
L 536.484698 -41.292905 
L 537.136422 -41.837686 
L 537.788147 -42.489882 
L 538.439871 -43.265436 
L 539.091595 -44.181451 
L 539.743319 -45.255999 
L 540.395043 -46.50786 
L 541.046767 -47.956183 
L 541.698491 -49.620064 
L 542.350216 -51.518046 
L 543.00194 -53.667542 
L 543.653664 -56.084193 
L 544.305388 -58.78116 
L 544.957112 -61.768392 
L 545.608836 -65.051866 
L 546.26056 -68.632841 
L 546.912284 -72.507155 
L 547.564009 -76.664587 
L 548.215733 -81.088329 
L 548.867457 -85.754604 
L 549.519181 -90.632446 
L 550.170905 -95.683687 
L 550.822629 -100.863173 
L 551.474353 -106.119215 
L 552.126078 -111.394292 
L 552.777802 -116.626004 
L 553.429526 -121.748256 
L 554.08125 -126.692658 
L 554.732974 -131.390101 
L 555.384698 -135.772468 
L 556.036422 -139.774428 
L 556.688147 -143.335252 
L 557.339871 -146.400596 
L 557.991595 -148.924175 
L 558.643319 -150.869281 
L 559.295043 -152.210074 
L 559.946767 -152.932606 
L 560.598491 -153.035525 
L 561.250216 -152.530447 
L 561.90194 -151.441957 
L 562.553664 -149.807249 
L 563.205388 -147.675419 
L 563.857112 -145.106409 
L 564.508836 -142.169664 
L 565.16056 -138.942519 
L 565.812284 -135.508391 
L 566.464009 -131.954797 
L 567.115733 -128.371294 
L 567.767457 -124.847361 
L 568.419181 -121.470316 
L 569.070905 -118.323281 
L 569.722629 -115.483279 
L 570.374353 -113.019482 
L 571.026078 -110.991654 
L 571.677802 -109.448823 
L 572.329526 -108.428192 
L 572.98125 -107.95433 
L 573.632974 -108.038631 
L 574.284698 -108.679069 
L 574.936422 -109.86024 
L 575.588147 -111.553698 
L 576.239871 -113.718578 
L 576.891595 -116.302493 
L 577.543319 -119.24269 
L 578.195043 -122.467461 
L 578.846767 -125.89775 
L 579.498491 -129.448965 
L 580.150216 -133.032919 
L 580.80194 -136.559887 
L 581.453664 -139.940706 
L 582.105388 -143.08888 
L 582.757112 -145.922624 
L 583.408836 -148.366797 
L 584.06056 -150.354658 
L 584.712284 -151.829407 
L 585.364009 -152.745438 
L 586.015733 -153.069297 
L 586.667457 -152.780286 
L 587.319181 -151.870716 
L 587.970905 -150.345787 
L 588.622629 -148.22312 
L 589.274353 -145.531953 
L 589.926078 -142.312026 
L 590.577802 -138.61222 
L 591.229526 -134.488988 
L 591.88125 -130.004633 
L 592.532974 -125.22552 
L 593.184698 -120.220249 
L 593.836422 -115.057888 
L 594.488147 -109.806294 
L 595.139871 -104.530586 
L 595.791595 -99.291809 
L 596.443319 -94.145815 
L 597.095043 -89.142386 
L 597.746767 -84.324609 
L 598.398491 -79.728491 
L 599.050216 -75.382822 
L 599.70194 -71.309248 
L 600.353664 -67.522542 
L 601.005388 -64.03104 
L 601.657112 -60.8372 
L 602.308836 -57.938264 
L 602.96056 -55.326978 
L 603.612284 -52.992347 
L 604.264009 -50.920384 
L 604.915733 -49.094845 
L 605.567457 -47.49791 
L 606.219181 -46.110811 
L 606.870905 -44.914389 
L 607.522629 -43.889565 
L 608.174353 -43.01774 
L 608.826078 -42.28111 
L 609.477802 -41.662905 
L 610.129526 -41.147558 
L 610.78125 -40.720812 
L 611.432974 -40.369768 
L 612.084698 -40.082895 
L 612.736422 -39.849994 
L 613.388147 -39.662141 
L 614.039871 -39.511603 
L 614.691595 -39.391745 
L 615.343319 -39.296929 
L 615.995043 -39.2224 
L 616.646767 -39.164193 
L 617.298491 -39.119021 
L 617.950216 -39.084188 
L 618.60194 -39.057496 
L 619.253664 -39.037171 
L 619.905388 -39.021793 
L 620.557112 -39.01023 
L 621.208836 -39.001589 
L 621.86056 -38.995173 
L 622.512284 -38.990439 
L 623.164009 -38.986967 
L 623.815733 -38.984436 
L 624.467457 -38.982604 
L 625.119181 -38.981284 
L 625.770905 -38.980341 
L 626.422629 -38.97967 
L 627.074353 -38.979195 
L 627.726078 -38.978862 
L 628.377802 -38.97863 
L 629.029526 -38.978469 
L 629.68125 -38.978358 
L 629.68125 -38.978125 
L 629.68125 -38.978125 
L 629.029526 -38.978125 
L 628.377802 -38.978125 
L 627.726078 -38.978125 
L 627.074353 -38.978125 
L 626.422629 -38.978125 
L 625.770905 -38.978125 
L 625.119181 -38.978125 
L 624.467457 -38.978125 
L 623.815733 -38.978125 
L 623.164009 -38.978125 
L 622.512284 -38.978125 
L 621.86056 -38.978125 
L 621.208836 -38.978125 
L 620.557112 -38.978125 
L 619.905388 -38.978125 
L 619.253664 -38.978125 
L 618.60194 -38.978125 
L 617.950216 -38.978125 
L 617.298491 -38.978125 
L 616.646767 -38.978125 
L 615.995043 -38.978125 
L 615.343319 -38.978125 
L 614.691595 -38.978125 
L 614.039871 -38.978125 
L 613.388147 -38.978125 
L 612.736422 -38.978125 
L 612.084698 -38.978125 
L 611.432974 -38.978125 
L 610.78125 -38.978125 
L 610.129526 -38.978125 
L 609.477802 -38.978125 
L 608.826078 -38.978125 
L 608.174353 -38.978125 
L 607.522629 -38.978125 
L 606.870905 -38.978125 
L 606.219181 -38.978125 
L 605.567457 -38.978125 
L 604.915733 -38.978125 
L 604.264009 -38.978125 
L 603.612284 -38.978125 
L 602.96056 -38.978125 
L 602.308836 -38.978125 
L 601.657112 -38.978125 
L 601.005388 -38.978125 
L 600.353664 -38.978125 
L 599.70194 -38.978125 
L 599.050216 -38.978125 
L 598.398491 -38.978125 
L 597.746767 -38.978125 
L 597.095043 -38.978125 
L 596.443319 -38.978125 
L 595.791595 -38.978125 
L 595.139871 -38.978125 
L 594.488147 -38.978125 
L 593.836422 -38.978125 
L 593.184698 -38.978125 
L 592.532974 -38.978125 
L 591.88125 -38.978125 
L 591.229526 -38.978125 
L 590.577802 -38.978125 
L 589.926078 -38.978125 
L 589.274353 -38.978125 
L 588.622629 -38.978125 
L 587.970905 -38.978125 
L 587.319181 -38.978125 
L 586.667457 -38.978125 
L 586.015733 -38.978125 
L 585.364009 -38.978125 
L 584.712284 -38.978125 
L 584.06056 -38.978125 
L 583.408836 -38.978125 
L 582.757112 -38.978125 
L 582.105388 -38.978125 
L 581.453664 -38.978125 
L 580.80194 -38.978125 
L 580.150216 -38.978125 
L 579.498491 -38.978125 
L 578.846767 -38.978125 
L 578.195043 -38.978125 
L 577.543319 -38.978125 
L 576.891595 -38.978125 
L 576.239871 -38.978125 
L 575.588147 -38.978125 
L 574.936422 -38.978125 
L 574.284698 -38.978125 
L 573.632974 -38.978125 
L 572.98125 -38.978125 
L 572.329526 -38.978125 
L 571.677802 -38.978125 
L 571.026078 -38.978125 
L 570.374353 -38.978125 
L 569.722629 -38.978125 
L 569.070905 -38.978125 
L 568.419181 -38.978125 
L 567.767457 -38.978125 
L 567.115733 -38.978125 
L 566.464009 -38.978125 
L 565.812284 -38.978125 
L 565.16056 -38.978125 
L 564.508836 -38.978125 
L 563.857112 -38.978125 
L 563.205388 -38.978125 
L 562.553664 -38.978125 
L 561.90194 -38.978125 
L 561.250216 -38.978125 
L 560.598491 -38.978125 
L 559.946767 -38.978125 
L 559.295043 -38.978125 
L 558.643319 -38.978125 
L 557.991595 -38.978125 
L 557.339871 -38.978125 
L 556.688147 -38.978125 
L 556.036422 -38.978125 
L 555.384698 -38.978125 
L 554.732974 -38.978125 
L 554.08125 -38.978125 
L 553.429526 -38.978125 
L 552.777802 -38.978125 
L 552.126078 -38.978125 
L 551.474353 -38.978125 
L 550.822629 -38.978125 
L 550.170905 -38.978125 
L 549.519181 -38.978125 
L 548.867457 -38.978125 
L 548.215733 -38.978125 
L 547.564009 -38.978125 
L 546.912284 -38.978125 
L 546.26056 -38.978125 
L 545.608836 -38.978125 
L 544.957112 -38.978125 
L 544.305388 -38.978125 
L 543.653664 -38.978125 
L 543.00194 -38.978125 
L 542.350216 -38.978125 
L 541.698491 -38.978125 
L 541.046767 -38.978125 
L 540.395043 -38.978125 
L 539.743319 -38.978125 
L 539.091595 -38.978125 
L 538.439871 -38.978125 
L 537.788147 -38.978125 
L 537.136422 -38.978125 
L 536.484698 -38.978125 
L 535.832974 -38.978125 
L 535.18125 -38.978125 
L 534.529526 -38.978125 
L 533.877802 -38.978125 
L 533.226078 -38.978125 
L 532.574353 -38.978125 
L 531.922629 -38.978125 
L 531.270905 -38.978125 
L 530.619181 -38.978125 
L 529.967457 -38.978125 
L 529.315733 -38.978125 
L 528.664009 -38.978125 
L 528.012284 -38.978125 
L 527.36056 -38.978125 
L 526.708836 -38.978125 
L 526.057112 -38.978125 
L 525.405388 -38.978125 
L 524.753664 -38.978125 
L 524.10194 -38.978125 
L 523.450216 -38.978125 
L 522.798491 -38.978125 
L 522.146767 -38.978125 
L 521.495043 -38.978125 
L 520.843319 -38.978125 
L 520.191595 -38.978125 
L 519.539871 -38.978125 
L 518.888147 -38.978125 
L 518.236422 -38.978125 
L 517.584698 -38.978125 
L 516.932974 -38.978125 
L 516.28125 -38.978125 
L 515.629526 -38.978125 
L 514.977802 -38.978125 
L 514.326078 -38.978125 
L 513.674353 -38.978125 
L 513.022629 -38.978125 
L 512.370905 -38.978125 
L 511.719181 -38.978125 
L 511.067457 -38.978125 
L 510.415733 -38.978125 
L 509.764009 -38.978125 
L 509.112284 -38.978125 
L 508.46056 -38.978125 
L 507.808836 -38.978125 
L 507.157112 -38.978125 
L 506.505388 -38.978125 
L 505.853664 -38.978125 
L 505.20194 -38.978125 
L 504.550216 -38.978125 
L 503.898491 -38.978125 
L 503.246767 -38.978125 
L 502.595043 -38.978125 
L 501.943319 -38.978125 
L 501.291595 -38.978125 
L 500.639871 -38.978125 
L 499.988147 -38.978125 
L 499.336422 -38.978125 
L 498.684698 -38.978125 
L 498.032974 -38.978125 
L 497.38125 -38.978125 
L 496.729526 -38.978125 
L 496.077802 -38.978125 
L 495.426078 -38.978125 
L 494.774353 -38.978125 
L 494.122629 -38.978125 
L 493.470905 -38.978125 
L 492.819181 -38.978125 
L 492.167457 -38.978125 
L 491.515733 -38.978125 
L 490.864009 -38.978125 
L 490.212284 -38.978125 
L 489.56056 -38.978125 
L 488.908836 -38.978125 
L 488.257112 -38.978125 
L 487.605388 -38.978125 
L 486.953664 -38.978125 
L 486.30194 -38.978125 
L 485.650216 -38.978125 
L 484.998491 -38.978125 
L 484.346767 -38.978125 
L 483.695043 -38.978125 
L 483.043319 -38.978125 
L 482.391595 -38.978125 
L 481.739871 -38.978125 
L 481.088147 -38.978125 
L 480.436422 -38.978125 
L 479.784698 -38.978125 
L 479.132974 -38.978125 
L 478.48125 -38.978125 
L 477.829526 -38.978125 
L 477.177802 -38.978125 
L 476.526078 -38.978125 
L 475.874353 -38.978125 
L 475.222629 -38.978125 
L 474.570905 -38.978125 
L 473.919181 -38.978125 
L 473.267457 -38.978125 
L 472.615733 -38.978125 
L 471.964009 -38.978125 
L 471.312284 -38.978125 
L 470.66056 -38.978125 
L 470.008836 -38.978125 
L 469.357112 -38.978125 
L 468.705388 -38.978125 
L 468.053664 -38.978125 
L 467.40194 -38.978125 
L 466.750216 -38.978125 
L 466.098491 -38.978125 
L 465.446767 -38.978125 
L 464.795043 -38.978125 
L 464.143319 -38.978125 
L 463.491595 -38.978125 
L 462.839871 -38.978125 
L 462.188147 -38.978125 
L 461.536422 -38.978125 
L 460.884698 -38.978125 
L 460.232974 -38.978125 
L 459.58125 -38.978125 
L 458.929526 -38.978125 
L 458.277802 -38.978125 
L 457.626078 -38.978125 
L 456.974353 -38.978125 
L 456.322629 -38.978125 
L 455.670905 -38.978125 
L 455.019181 -38.978125 
L 454.367457 -38.978125 
L 453.715733 -38.978125 
L 453.064009 -38.978125 
L 452.412284 -38.978125 
L 451.76056 -38.978125 
L 451.108836 -38.978125 
L 450.457112 -38.978125 
L 449.805388 -38.978125 
L 449.153664 -38.978125 
L 448.50194 -38.978125 
L 447.850216 -38.978125 
L 447.198491 -38.978125 
L 446.546767 -38.978125 
L 445.895043 -38.978125 
L 445.243319 -38.978125 
L 444.591595 -38.978125 
L 443.939871 -38.978125 
L 443.288147 -38.978125 
L 442.636422 -38.978125 
L 441.984698 -38.978125 
L 441.332974 -38.978125 
L 440.68125 -38.978125 
L 440.029526 -38.978125 
L 439.377802 -38.978125 
L 438.726078 -38.978125 
L 438.074353 -38.978125 
L 437.422629 -38.978125 
L 436.770905 -38.978125 
L 436.119181 -38.978125 
L 435.467457 -38.978125 
L 434.815733 -38.978125 
L 434.164009 -38.978125 
L 433.512284 -38.978125 
L 432.86056 -38.978125 
L 432.208836 -38.978125 
L 431.557112 -38.978125 
L 430.905388 -38.978125 
L 430.253664 -38.978125 
L 429.60194 -38.978125 
L 428.950216 -38.978125 
L 428.298491 -38.978125 
L 427.646767 -38.978125 
L 426.995043 -38.978125 
L 426.343319 -38.978125 
L 425.691595 -38.978125 
L 425.039871 -38.978125 
L 424.388147 -38.978125 
L 423.736422 -38.978125 
L 423.084698 -38.978125 
L 422.432974 -38.978125 
L 421.78125 -38.978125 
L 421.129526 -38.978125 
L 420.477802 -38.978125 
L 419.826078 -38.978125 
L 419.174353 -38.978125 
L 418.522629 -38.978125 
L 417.870905 -38.978125 
L 417.219181 -38.978125 
L 416.567457 -38.978125 
L 415.915733 -38.978125 
L 415.264009 -38.978125 
L 414.612284 -38.978125 
L 413.96056 -38.978125 
L 413.308836 -38.978125 
L 412.657112 -38.978125 
L 412.005388 -38.978125 
L 411.353664 -38.978125 
L 410.70194 -38.978125 
L 410.050216 -38.978125 
L 409.398491 -38.978125 
L 408.746767 -38.978125 
L 408.095043 -38.978125 
L 407.443319 -38.978125 
L 406.791595 -38.978125 
L 406.139871 -38.978125 
L 405.488147 -38.978125 
L 404.836422 -38.978125 
L 404.184698 -38.978125 
L 403.532974 -38.978125 
L 402.88125 -38.978125 
L 402.229526 -38.978125 
L 401.577802 -38.978125 
L 400.926078 -38.978125 
L 400.274353 -38.978125 
L 399.622629 -38.978125 
L 398.970905 -38.978125 
L 398.319181 -38.978125 
L 397.667457 -38.978125 
L 397.015733 -38.978125 
L 396.364009 -38.978125 
L 395.712284 -38.978125 
L 395.06056 -38.978125 
L 394.408836 -38.978125 
L 393.757112 -38.978125 
L 393.105388 -38.978125 
L 392.453664 -38.978125 
L 391.80194 -38.978125 
L 391.150216 -38.978125 
L 390.498491 -38.978125 
L 389.846767 -38.978125 
L 389.195043 -38.978125 
L 388.543319 -38.978125 
L 387.891595 -38.978125 
L 387.239871 -38.978125 
L 386.588147 -38.978125 
L 385.936422 -38.978125 
L 385.284698 -38.978125 
L 384.632974 -38.978125 
L 383.98125 -38.978125 
L 383.329526 -38.978125 
L 382.677802 -38.978125 
L 382.026078 -38.978125 
L 381.374353 -38.978125 
L 380.722629 -38.978125 
L 380.070905 -38.978125 
L 379.419181 -38.978125 
L 378.767457 -38.978125 
L 378.115733 -38.978125 
L 377.464009 -38.978125 
L 376.812284 -38.978125 
L 376.16056 -38.978125 
L 375.508836 -38.978125 
L 374.857112 -38.978125 
L 374.205388 -38.978125 
L 373.553664 -38.978125 
L 372.90194 -38.978125 
L 372.250216 -38.978125 
L 371.598491 -38.978125 
L 370.946767 -38.978125 
L 370.295043 -38.978125 
L 369.643319 -38.978125 
L 368.991595 -38.978125 
L 368.339871 -38.978125 
L 367.688147 -38.978125 
L 367.036422 -38.978125 
L 366.384698 -38.978125 
L 365.732974 -38.978125 
L 365.08125 -38.978125 
L 364.429526 -38.978125 
L 363.777802 -38.978125 
L 363.126078 -38.978125 
L 362.474353 -38.978125 
L 361.822629 -38.978125 
L 361.170905 -38.978125 
L 360.519181 -38.978125 
L 359.867457 -38.978125 
L 359.215733 -38.978125 
L 358.564009 -38.978125 
L 357.912284 -38.978125 
L 357.26056 -38.978125 
L 356.608836 -38.978125 
L 355.957112 -38.978125 
L 355.305388 -38.978125 
L 354.653664 -38.978125 
L 354.00194 -38.978125 
L 353.350216 -38.978125 
L 352.698491 -38.978125 
L 352.046767 -38.978125 
L 351.395043 -38.978125 
L 350.743319 -38.978125 
L 350.091595 -38.978125 
L 349.439871 -38.978125 
L 348.788147 -38.978125 
L 348.136422 -38.978125 
L 347.484698 -38.978125 
L 346.832974 -38.978125 
L 346.18125 -38.978125 
L 345.529526 -38.978125 
L 344.877802 -38.978125 
L 344.226078 -38.978125 
L 343.574353 -38.978125 
L 342.922629 -38.978125 
L 342.270905 -38.978125 
L 341.619181 -38.978125 
L 340.967457 -38.978125 
L 340.315733 -38.978125 
L 339.664009 -38.978125 
L 339.012284 -38.978125 
L 338.36056 -38.978125 
L 337.708836 -38.978125 
L 337.057112 -38.978125 
L 336.405388 -38.978125 
L 335.753664 -38.978125 
L 335.10194 -38.978125 
L 334.450216 -38.978125 
L 333.798491 -38.978125 
L 333.146767 -38.978125 
L 332.495043 -38.978125 
L 331.843319 -38.978125 
L 331.191595 -38.978125 
L 330.539871 -38.978125 
L 329.888147 -38.978125 
L 329.236422 -38.978125 
L 328.584698 -38.978125 
L 327.932974 -38.978125 
L 327.28125 -38.978125 
L 326.629526 -38.978125 
L 325.977802 -38.978125 
L 325.326078 -38.978125 
L 324.674353 -38.978125 
L 324.022629 -38.978125 
L 323.370905 -38.978125 
L 322.719181 -38.978125 
L 322.067457 -38.978125 
L 321.415733 -38.978125 
L 320.764009 -38.978125 
L 320.112284 -38.978125 
L 319.46056 -38.978125 
L 318.808836 -38.978125 
L 318.157112 -38.978125 
L 317.505388 -38.978125 
L 316.853664 -38.978125 
L 316.20194 -38.978125 
L 315.550216 -38.978125 
L 314.898491 -38.978125 
L 314.246767 -38.978125 
L 313.595043 -38.978125 
L 312.943319 -38.978125 
L 312.291595 -38.978125 
L 311.639871 -38.978125 
L 310.988147 -38.978125 
L 310.336422 -38.978125 
L 309.684698 -38.978125 
L 309.032974 -38.978125 
L 308.38125 -38.978125 
L 307.729526 -38.978125 
L 307.077802 -38.978125 
L 306.426078 -38.978125 
L 305.774353 -38.978125 
L 305.122629 -38.978125 
L 304.470905 -38.978125 
L 303.819181 -38.978125 
L 303.167457 -38.978125 
L 302.515733 -38.978125 
L 301.864009 -38.978125 
L 301.212284 -38.978125 
L 300.56056 -38.978125 
L 299.908836 -38.978125 
L 299.257112 -38.978125 
L 298.605388 -38.978125 
L 297.953664 -38.978125 
L 297.30194 -38.978125 
L 296.650216 -38.978125 
L 295.998491 -38.978125 
L 295.346767 -38.978125 
L 294.695043 -38.978125 
L 294.043319 -38.978125 
L 293.391595 -38.978125 
L 292.739871 -38.978125 
L 292.088147 -38.978125 
L 291.436422 -38.978125 
L 290.784698 -38.978125 
L 290.132974 -38.978125 
L 289.48125 -38.978125 
L 288.829526 -38.978125 
L 288.177802 -38.978125 
L 287.526078 -38.978125 
L 286.874353 -38.978125 
L 286.222629 -38.978125 
L 285.570905 -38.978125 
L 284.919181 -38.978125 
L 284.267457 -38.978125 
L 283.615733 -38.978125 
L 282.964009 -38.978125 
L 282.312284 -38.978125 
L 281.66056 -38.978125 
L 281.008836 -38.978125 
L 280.357112 -38.978125 
L 279.705388 -38.978125 
L 279.053664 -38.978125 
L 278.40194 -38.978125 
L 277.750216 -38.978125 
L 277.098491 -38.978125 
L 276.446767 -38.978125 
L 275.795043 -38.978125 
L 275.143319 -38.978125 
L 274.491595 -38.978125 
L 273.839871 -38.978125 
L 273.188147 -38.978125 
L 272.536422 -38.978125 
L 271.884698 -38.978125 
L 271.232974 -38.978125 
L 270.58125 -38.978125 
L 269.929526 -38.978125 
L 269.277802 -38.978125 
L 268.626078 -38.978125 
L 267.974353 -38.978125 
L 267.322629 -38.978125 
L 266.670905 -38.978125 
L 266.019181 -38.978125 
L 265.367457 -38.978125 
L 264.715733 -38.978125 
L 264.064009 -38.978125 
L 263.412284 -38.978125 
L 262.76056 -38.978125 
L 262.108836 -38.978125 
L 261.457112 -38.978125 
L 260.805388 -38.978125 
L 260.153664 -38.978125 
L 259.50194 -38.978125 
L 258.850216 -38.978125 
L 258.198491 -38.978125 
L 257.546767 -38.978125 
L 256.895043 -38.978125 
L 256.243319 -38.978125 
L 255.591595 -38.978125 
L 254.939871 -38.978125 
L 254.288147 -38.978125 
L 253.636422 -38.978125 
L 252.984698 -38.978125 
L 252.332974 -38.978125 
L 251.68125 -38.978125 
L 251.029526 -38.978125 
L 250.377802 -38.978125 
L 249.726078 -38.978125 
L 249.074353 -38.978125 
L 248.422629 -38.978125 
L 247.770905 -38.978125 
L 247.119181 -38.978125 
L 246.467457 -38.978125 
L 245.815733 -38.978125 
L 245.164009 -38.978125 
L 244.512284 -38.978125 
L 243.86056 -38.978125 
L 243.208836 -38.978125 
L 242.557112 -38.978125 
L 241.905388 -38.978125 
L 241.253664 -38.978125 
L 240.60194 -38.978125 
L 239.950216 -38.978125 
L 239.298491 -38.978125 
L 238.646767 -38.978125 
L 237.995043 -38.978125 
L 237.343319 -38.978125 
L 236.691595 -38.978125 
L 236.039871 -38.978125 
L 235.388147 -38.978125 
L 234.736422 -38.978125 
L 234.084698 -38.978125 
L 233.432974 -38.978125 
L 232.78125 -38.978125 
L 232.129526 -38.978125 
L 231.477802 -38.978125 
L 230.826078 -38.978125 
L 230.174353 -38.978125 
L 229.522629 -38.978125 
L 228.870905 -38.978125 
L 228.219181 -38.978125 
L 227.567457 -38.978125 
L 226.915733 -38.978125 
L 226.264009 -38.978125 
L 225.612284 -38.978125 
L 224.96056 -38.978125 
L 224.308836 -38.978125 
L 223.657112 -38.978125 
L 223.005388 -38.978125 
L 222.353664 -38.978125 
L 221.70194 -38.978125 
L 221.050216 -38.978125 
L 220.398491 -38.978125 
L 219.746767 -38.978125 
L 219.095043 -38.978125 
L 218.443319 -38.978125 
L 217.791595 -38.978125 
L 217.139871 -38.978125 
L 216.488147 -38.978125 
L 215.836422 -38.978125 
L 215.184698 -38.978125 
L 214.532974 -38.978125 
L 213.88125 -38.978125 
L 213.229526 -38.978125 
L 212.577802 -38.978125 
L 211.926078 -38.978125 
L 211.274353 -38.978125 
L 210.622629 -38.978125 
L 209.970905 -38.978125 
L 209.319181 -38.978125 
L 208.667457 -38.978125 
L 208.015733 -38.978125 
L 207.364009 -38.978125 
L 206.712284 -38.978125 
L 206.06056 -38.978125 
L 205.408836 -38.978125 
L 204.757112 -38.978125 
L 204.105388 -38.978125 
L 203.453664 -38.978125 
L 202.80194 -38.978125 
L 202.150216 -38.978125 
L 201.498491 -38.978125 
L 200.846767 -38.978125 
L 200.195043 -38.978125 
L 199.543319 -38.978125 
L 198.891595 -38.978125 
L 198.239871 -38.978125 
L 197.588147 -38.978125 
L 196.936422 -38.978125 
L 196.284698 -38.978125 
L 195.632974 -38.978125 
L 194.98125 -38.978125 
L 194.329526 -38.978125 
L 193.677802 -38.978125 
L 193.026078 -38.978125 
L 192.374353 -38.978125 
L 191.722629 -38.978125 
L 191.070905 -38.978125 
L 190.419181 -38.978125 
L 189.767457 -38.978125 
L 189.115733 -38.978125 
L 188.464009 -38.978125 
L 187.812284 -38.978125 
L 187.16056 -38.978125 
L 186.508836 -38.978125 
L 185.857112 -38.978125 
L 185.205388 -38.978125 
L 184.553664 -38.978125 
L 183.90194 -38.978125 
L 183.250216 -38.978125 
L 182.598491 -38.978125 
L 181.946767 -38.978125 
L 181.295043 -38.978125 
L 180.643319 -38.978125 
L 179.991595 -38.978125 
L 179.339871 -38.978125 
L 178.688147 -38.978125 
L 178.036422 -38.978125 
L 177.384698 -38.978125 
L 176.732974 -38.978125 
L 176.08125 -38.978125 
L 175.429526 -38.978125 
L 174.777802 -38.978125 
L 174.126078 -38.978125 
L 173.474353 -38.978125 
L 172.822629 -38.978125 
L 172.170905 -38.978125 
L 171.519181 -38.978125 
L 170.867457 -38.978125 
L 170.215733 -38.978125 
L 169.564009 -38.978125 
L 168.912284 -38.978125 
L 168.26056 -38.978125 
L 167.608836 -38.978125 
L 166.957112 -38.978125 
L 166.305388 -38.978125 
L 165.653664 -38.978125 
L 165.00194 -38.978125 
L 164.350216 -38.978125 
L 163.698491 -38.978125 
L 163.046767 -38.978125 
L 162.395043 -38.978125 
L 161.743319 -38.978125 
L 161.091595 -38.978125 
L 160.439871 -38.978125 
L 159.788147 -38.978125 
L 159.136422 -38.978125 
L 158.484698 -38.978125 
L 157.832974 -38.978125 
L 157.18125 -38.978125 
L 156.529526 -38.978125 
L 155.877802 -38.978125 
L 155.226078 -38.978125 
L 154.574353 -38.978125 
L 153.922629 -38.978125 
L 153.270905 -38.978125 
L 152.619181 -38.978125 
L 151.967457 -38.978125 
L 151.315733 -38.978125 
L 150.664009 -38.978125 
L 150.012284 -38.978125 
L 149.36056 -38.978125 
L 148.708836 -38.978125 
L 148.057112 -38.978125 
L 147.405388 -38.978125 
L 146.753664 -38.978125 
L 146.10194 -38.978125 
L 145.450216 -38.978125 
L 144.798491 -38.978125 
L 144.146767 -38.978125 
L 143.495043 -38.978125 
L 142.843319 -38.978125 
L 142.191595 -38.978125 
L 141.539871 -38.978125 
L 140.888147 -38.978125 
L 140.236422 -38.978125 
L 139.584698 -38.978125 
L 138.932974 -38.978125 
L 138.28125 -38.978125 
L 137.629526 -38.978125 
L 136.977802 -38.978125 
L 136.326078 -38.978125 
L 135.674353 -38.978125 
L 135.022629 -38.978125 
L 134.370905 -38.978125 
L 133.719181 -38.978125 
L 133.067457 -38.978125 
L 132.415733 -38.978125 
L 131.764009 -38.978125 
L 131.112284 -38.978125 
L 130.46056 -38.978125 
L 129.808836 -38.978125 
L 129.157112 -38.978125 
L 128.505388 -38.978125 
L 127.853664 -38.978125 
L 127.20194 -38.978125 
L 126.550216 -38.978125 
L 125.898491 -38.978125 
L 125.246767 -38.978125 
L 124.595043 -38.978125 
L 123.943319 -38.978125 
L 123.291595 -38.978125 
L 122.639871 -38.978125 
L 121.988147 -38.978125 
L 121.336422 -38.978125 
L 120.684698 -38.978125 
L 120.032974 -38.978125 
L 119.38125 -38.978125 
L 118.729526 -38.978125 
L 118.077802 -38.978125 
L 117.426078 -38.978125 
L 116.774353 -38.978125 
L 116.122629 -38.978125 
L 115.470905 -38.978125 
L 114.819181 -38.978125 
L 114.167457 -38.978125 
L 113.515733 -38.978125 
L 112.864009 -38.978125 
L 112.212284 -38.978125 
L 111.56056 -38.978125 
L 110.908836 -38.978125 
L 110.257112 -38.978125 
L 109.605388 -38.978125 
L 108.953664 -38.978125 
L 108.30194 -38.978125 
L 107.650216 -38.978125 
L 106.998491 -38.978125 
L 106.346767 -38.978125 
L 105.695043 -38.978125 
L 105.043319 -38.978125 
L 104.391595 -38.978125 
L 103.739871 -38.978125 
L 103.088147 -38.978125 
L 102.436422 -38.978125 
L 101.784698 -38.978125 
L 101.132974 -38.978125 
L 100.48125 -38.978125 
L 99.829526 -38.978125 
L 99.177802 -38.978125 
L 98.526078 -38.978125 
L 97.874353 -38.978125 
L 97.222629 -38.978125 
L 96.570905 -38.978125 
L 95.919181 -38.978125 
L 95.267457 -38.978125 
L 94.615733 -38.978125 
L 93.964009 -38.978125 
L 93.312284 -38.978125 
L 92.66056 -38.978125 
L 92.008836 -38.978125 
L 91.357112 -38.978125 
L 90.705388 -38.978125 
L 90.053664 -38.978125 
L 89.40194 -38.978125 
L 88.750216 -38.978125 
L 88.098491 -38.978125 
L 87.446767 -38.978125 
L 86.795043 -38.978125 
L 86.143319 -38.978125 
L 85.491595 -38.978125 
L 84.839871 -38.978125 
L 84.188147 -38.978125 
L 83.536422 -38.978125 
L 82.884698 -38.978125 
L 82.232974 -38.978125 
L 81.58125 -38.978125 
L 80.929526 -38.978125 
L 80.277802 -38.978125 
L 79.626078 -38.978125 
L 78.974353 -38.978125 
L 78.322629 -38.978125 
L 77.670905 -38.978125 
L 77.019181 -38.978125 
L 76.367457 -38.978125 
L 75.715733 -38.978125 
L 75.064009 -38.978125 
L 74.412284 -38.978125 
L 73.76056 -38.978125 
L 73.108836 -38.978125 
L 72.457112 -38.978125 
L 71.805388 -38.978125 
L 71.153664 -38.978125 
L 70.50194 -38.978125 
L 69.850216 -38.978125 
L 69.198491 -38.978125 
L 68.546767 -38.978125 
L 67.895043 -38.978125 
L 67.243319 -38.978125 
L 66.591595 -38.978125 
L 65.939871 -38.978125 
L 65.288147 -38.978125 
L 64.636422 -38.978125 
L 63.984698 -38.978125 
L 63.332974 -38.978125 
L 62.68125 -38.978125 
L 62.029526 -38.978125 
L 61.377802 -38.978125 
L 60.726078 -38.978125 
L 60.074353 -38.978125 
L 59.422629 -38.978125 
L 58.770905 -38.978125 
L 58.119181 -38.978125 
L 57.467457 -38.978125 
L 56.815733 -38.978125 
L 56.164009 -38.978125 
L 55.512284 -38.978125 
L 54.86056 -38.978125 
L 54.208836 -38.978125 
L 53.557112 -38.978125 
L 52.905388 -38.978125 
L 52.253664 -38.978125 
L 51.60194 -38.978125 
L 50.950216 -38.978125 
L 50.298491 -38.978125 
L 49.646767 -38.978125 
L 48.995043 -38.978125 
L 48.343319 -38.978125 
L 47.691595 -38.978125 
L 47.039871 -38.978125 
L 46.388147 -38.978125 
L 45.736422 -38.978125 
L 45.084698 -38.978125 
L 44.432974 -38.978125 
L 43.78125 -38.978125 
z
" style="stroke: #f2b84b; stroke-opacity: 0.34"/>
    </defs>
    <g clip-path="url(#pf3c9dedad5)">
     <use xlink:href="#m642587f7cc" x="0" y="312.458125" style="fill: #f2b84b; fill-opacity: 0.34; stroke: #f2b84b; stroke-opacity: 0.34"/>
    </g>
   </g>
   <g id="line2d_29">
    <path d="M 43.78125 273.48 
L 101.784698 273.393123 
L 104.391595 273.21457 
L 106.346767 272.903492 
L 107.650216 272.541245 
L 108.953664 271.987064 
L 110.257112 271.161155 
L 111.56056 269.96242 
L 112.864009 268.268558 
L 114.167457 265.939268 
L 115.470905 262.823593 
L 116.774353 258.77213 
L 118.077802 253.654209 
L 119.38125 247.379249 
L 120.684698 239.920362 
L 121.988147 231.337196 
L 123.943319 216.745258 
L 128.505388 181.138711 
L 129.808836 172.840599 
L 131.112284 166.353859 
L 131.764009 163.927907 
L 132.415733 162.10451 
L 133.067457 160.91451 
L 133.719181 160.377652 
L 134.370905 160.501927 
L 135.022629 161.283243 
L 135.674353 162.705417 
L 136.326078 164.74051 
L 136.977802 167.349461 
L 138.28125 174.08286 
L 139.584698 182.411231 
L 142.191595 201.429252 
L 144.146767 215.224625 
L 145.450216 223.056774 
L 146.753664 229.184428 
L 147.405388 231.469408 
L 148.057112 233.170977 
L 148.708836 234.24748 
L 149.36056 234.662459 
L 150.012284 234.384702 
L 150.664009 233.388376 
L 151.315733 231.653259 
L 151.967457 229.165091 
L 152.619181 225.916044 
L 153.270905 221.905306 
L 154.574353 211.634719 
L 155.877802 198.514133 
L 157.18125 182.86251 
L 159.136422 155.770972 
L 163.698491 89.805437 
L 165.00194 74.69154 
L 166.305388 63.02216 
L 166.957112 58.719369 
L 167.608836 55.535049 
L 168.26056 53.519115 
L 168.912284 52.701239 
L 169.564009 53.089897 
L 170.215733 54.671961 
L 170.867457 57.41285 
L 171.519181 61.257249 
L 172.170905 66.13035 
L 173.474353 78.576817 
L 174.777802 93.840049 
L 177.384698 128.447361 
L 179.339871 153.558731 
L 180.643319 168.036863 
L 181.946767 179.842595 
L 182.598491 184.587403 
L 183.250216 188.509661 
L 183.90194 191.592236 
L 184.553664 193.834372 
L 185.205388 195.251196 
L 185.857112 195.872989 
L 186.508836 195.744233 
L 187.16056 194.922461 
L 187.812284 193.476918 
L 188.464009 191.487052 
L 189.767457 186.233094 
L 191.722629 176.648594 
L 193.677802 167.456256 
L 194.98125 162.791396 
L 195.632974 161.128268 
L 196.284698 159.989037 
L 196.936422 159.416463 
L 197.588147 159.440062 
L 198.239871 160.075809 
L 198.891595 161.326181 
L 199.543319 163.180564 
L 200.195043 165.615984 
L 201.498491 172.082753 
L 202.80194 180.341342 
L 204.757112 194.994997 
L 208.667457 225.899404 
L 210.622629 239.222575 
L 211.926078 246.712419 
L 213.229526 252.977783 
L 214.532974 258.015674 
L 215.836422 261.876958 
L 217.139871 264.63897 
L 217.791595 265.632752 
L 218.443319 266.379816 
L 219.095043 266.886504 
L 219.746767 267.156824 
L 220.398491 267.192103 
L 221.050216 266.990751 
L 221.70194 266.548145 
L 222.353664 265.856614 
L 223.005388 264.905543 
L 223.657112 263.681584 
L 224.308836 262.16898 
L 225.612284 258.20543 
L 226.915733 252.859388 
L 228.219181 245.974013 
L 229.522629 237.416819 
L 230.826078 227.107806 
L 232.129526 215.04723 
L 234.084698 193.933936 
L 236.039871 170.015771 
L 240.60194 112.668764 
L 241.905388 98.773991 
L 243.208836 87.201863 
L 244.512284 78.515162 
L 245.164009 75.395702 
L 245.815733 73.148664 
L 246.467457 71.802931 
L 247.119181 71.375872 
L 247.770905 71.873008 
L 248.422629 73.287902 
L 249.074353 75.602286 
L 249.726078 78.786414 
L 250.377802 82.799637 
L 251.68125 93.10119 
L 252.984698 105.998233 
L 254.939871 128.846993 
L 260.805388 201.792435 
L 262.108836 215.370887 
L 263.412284 227.252336 
L 264.715733 237.313855 
L 266.019181 245.527588 
L 267.322629 251.935099 
L 268.626078 256.619014 
L 269.277802 258.344911 
L 269.929526 259.675894 
L 270.58125 260.622535 
L 271.232974 261.193879 
L 271.884698 261.397183 
L 272.536422 261.237823 
L 273.188147 260.719352 
L 273.839871 259.843712 
L 274.491595 258.611602 
L 275.143319 257.022986 
L 275.795043 255.077715 
L 277.098491 250.12053 
L 278.40194 243.76608 
L 279.705388 236.09057 
L 281.008836 227.245846 
L 282.964009 212.354374 
L 286.874353 181.89712 
L 288.177802 173.479995 
L 289.48125 166.833097 
L 290.132974 164.31596 
L 290.784698 162.396897 
L 291.436422 161.109336 
L 292.088147 160.475929 
L 292.739871 160.507904 
L 293.391595 161.204741 
L 294.043319 162.554186 
L 294.695043 164.532624 
L 295.346767 167.105761 
L 296.650216 173.851787 
L 297.953664 182.348176 
L 299.908836 197.207593 
L 303.819181 227.926812 
L 305.774353 240.973316 
L 307.077802 248.276992 
L 308.38125 254.395807 
L 309.684698 259.366428 
L 310.988147 263.286065 
L 312.291595 266.289006 
L 313.595043 268.525738 
L 314.898491 270.146385 
L 316.20194 271.289166 
L 317.505388 272.073631 
L 318.808836 272.597903 
L 320.764009 273.059292 
L 323.370905 273.328309 
L 326.629526 273.403075 
L 329.888147 273.284835 
L 331.843319 273.05854 
L 333.798491 272.596418 
L 335.10194 272.071376 
L 336.405388 271.285835 
L 337.708836 270.141593 
L 339.012284 268.519028 
L 340.315733 266.279866 
L 341.619181 263.273956 
L 342.922629 259.35084 
L 344.226078 254.376318 
L 345.529526 248.253352 
L 346.832974 240.945532 
L 348.136422 232.500225 
L 350.091595 218.059041 
L 354.653664 182.315816 
L 355.957112 173.824732 
L 357.26056 167.085798 
L 357.912284 164.516776 
L 358.564009 162.542761 
L 359.215733 161.197988 
L 359.867457 160.506018 
L 360.519181 160.479045 
L 361.170905 161.117546 
L 361.822629 162.410265 
L 362.474353 164.334538 
L 363.126078 166.856963 
L 364.429526 173.514981 
L 365.732974 181.945092 
L 367.688147 196.750836 
L 371.598491 227.511078 
L 373.553664 240.625531 
L 374.857112 247.980892 
L 376.16056 254.151542 
L 377.464009 259.170939 
L 378.767457 263.134137 
L 380.070905 266.174263 
L 381.374353 268.441479 
L 382.677802 270.08622 
L 383.98125 271.247425 
L 385.284698 272.0456 
L 386.588147 272.579931 
L 388.543319 273.051994 
L 391.150216 273.333745 
L 395.06056 273.455528 
L 408.095043 273.479986 
L 432.208836 273.394834 
L 434.815733 273.213145 
L 436.770905 272.888223 
L 438.074353 272.50198 
L 439.377802 271.900039 
L 440.68125 270.98495 
L 441.984698 269.62812 
L 443.288147 267.666286 
L 444.591595 264.900738 
L 445.895043 261.100876 
L 447.198491 256.013634 
L 448.50194 249.38 
L 449.805388 240.95909 
L 451.108836 230.559119 
L 452.412284 218.073134 
L 453.715733 203.51584 
L 455.670905 178.214725 
L 458.277802 140.317784 
L 460.884698 102.898141 
L 462.188147 86.608085 
L 463.491595 73.156858 
L 464.143319 67.751694 
L 464.795043 63.341968 
L 465.446767 59.996765 
L 466.098491 57.76914 
L 466.750216 56.69473 
L 467.40194 56.790811 
L 468.053664 58.055834 
L 468.705388 60.469472 
L 469.357112 63.993158 
L 470.008836 68.571103 
L 471.312284 80.589657 
L 472.615733 95.799062 
L 474.570905 122.664016 
L 479.132974 188.469179 
L 481.088147 212.233026 
L 482.391595 225.594999 
L 483.695043 236.860263 
L 484.998491 246.089289 
L 486.30194 253.442905 
L 487.605388 259.145573 
L 488.908836 263.452083 
L 490.212284 266.62043 
L 491.515733 268.89214 
L 492.819181 270.479991 
L 494.122629 271.562186 
L 495.426078 272.281507 
L 496.729526 272.747877 
L 498.684698 273.14509 
L 501.291595 273.371044 
L 505.853664 273.467764 
L 524.753664 273.461217 
L 529.315733 273.326692 
L 531.922629 273.033136 
L 533.877802 272.543073 
L 535.18125 271.989826 
L 536.484698 271.16522 
L 537.788147 269.968243 
L 539.091595 268.276674 
L 540.395043 265.950265 
L 541.698491 262.838061 
L 543.00194 258.790583 
L 544.305388 253.676965 
L 545.608836 247.406259 
L 546.912284 239.95097 
L 548.215733 231.369796 
L 550.170905 216.774438 
L 554.732974 181.068024 
L 556.036422 172.683697 
L 557.339871 166.057529 
L 557.991595 163.53395 
L 558.643319 161.588844 
L 559.295043 160.248051 
L 559.946767 159.525519 
L 560.598491 159.4226 
L 561.250216 159.927678 
L 561.90194 161.016168 
L 562.553664 162.650876 
L 563.205388 164.782706 
L 564.508836 170.288461 
L 566.464009 180.503328 
L 568.419181 190.987809 
L 569.722629 196.974846 
L 570.374353 199.438643 
L 571.026078 201.466471 
L 571.677802 203.009302 
L 572.329526 204.029933 
L 572.98125 204.503795 
L 573.632974 204.419494 
L 574.284698 203.779056 
L 574.936422 202.597885 
L 575.588147 200.904427 
L 576.239871 198.739547 
L 577.543319 193.215435 
L 579.498491 183.00916 
L 581.453664 172.517419 
L 582.757112 166.535501 
L 583.408836 164.091328 
L 584.06056 162.103467 
L 584.712284 160.628718 
L 585.364009 159.712687 
L 586.015733 159.388828 
L 586.667457 159.677839 
L 587.319181 160.587409 
L 587.970905 162.112338 
L 588.622629 164.235005 
L 589.274353 166.926172 
L 590.577802 173.845905 
L 591.88125 182.453492 
L 593.836422 197.400237 
L 597.746767 228.133516 
L 599.70194 241.148877 
L 601.005388 248.427085 
L 602.308836 254.519861 
L 603.612284 259.465778 
L 604.915733 263.36328 
L 606.219181 266.347314 
L 607.522629 268.56856 
L 608.826078 270.177015 
L 610.129526 271.310567 
L 611.432974 272.088357 
L 612.736422 272.608131 
L 614.691595 273.06638 
L 617.298491 273.339104 
L 621.208836 273.456536 
L 629.68125 273.479767 
L 629.68125 273.479767 
" clip-path="url(#pf3c9dedad5)" style="fill: none; stroke: #7a3d23; stroke-width: 2; stroke-linecap: square"/>
   </g>
   <g id="line2d_30">
    <path d="M 133.903651 273.48 
L 133.903651 24 
" clip-path="url(#pf3c9dedad5)" style="fill: none; stroke: #4f8a8b; stroke-opacity: 0.55; stroke-width: 0.8; stroke-linecap: square"/>
   </g>
   <g id="line2d_31">
    <path d="M 167.049019 273.48 
L 167.049019 24 
" clip-path="url(#pf3c9dedad5)" style="fill: none; stroke: #4f8a8b; stroke-opacity: 0.55; stroke-width: 0.8; stroke-linecap: square"/>
   </g>
   <g id="line2d_32">
    <path d="M 170.904028 273.48 
L 170.904028 24 
" clip-path="url(#pf3c9dedad5)" style="fill: none; stroke: #4f8a8b; stroke-opacity: 0.55; stroke-width: 0.8; stroke-linecap: square"/>
   </g>
   <g id="line2d_33">
    <path d="M 197.50359 273.48 
L 197.50359 24 
" clip-path="url(#pf3c9dedad5)" style="fill: none; stroke: #4f8a8b; stroke-opacity: 0.55; stroke-width: 0.8; stroke-linecap: square"/>
   </g>
   <g id="line2d_34">
    <path d="M 243.073652 273.48 
L 243.073652 24 
" clip-path="url(#pf3c9dedad5)" style="fill: none; stroke: #4f8a8b; stroke-opacity: 0.55; stroke-width: 0.8; stroke-linecap: square"/>
   </g>
   <g id="line2d_35">
    <path d="M 251.1152 273.48 
L 251.1152 24 
" clip-path="url(#pf3c9dedad5)" style="fill: none; stroke: #4f8a8b; stroke-opacity: 0.55; stroke-width: 0.8; stroke-linecap: square"/>
   </g>
   <g id="line2d_36">
    <path d="M 292.383072 273.48 
L 292.383072 24 
" clip-path="url(#pf3c9dedad5)" style="fill: none; stroke: #4f8a8b; stroke-opacity: 0.55; stroke-width: 0.8; stroke-linecap: square"/>
   </g>
   <g id="line2d_37">
    <path d="M 360.219666 273.48 
L 360.219666 24 
" clip-path="url(#pf3c9dedad5)" style="fill: none; stroke: #4f8a8b; stroke-opacity: 0.55; stroke-width: 0.8; stroke-linecap: square"/>
   </g>
   <g id="line2d_38">
    <path d="M 464.570905 273.48 
L 464.570905 24 
" clip-path="url(#pf3c9dedad5)" style="fill: none; stroke: #4f8a8b; stroke-opacity: 0.55; stroke-width: 0.8; stroke-linecap: square"/>
   </g>
   <g id="line2d_39">
    <path d="M 469.474477 273.48 
L 469.474477 24 
" clip-path="url(#pf3c9dedad5)" style="fill: none; stroke: #4f8a8b; stroke-opacity: 0.55; stroke-width: 0.8; stroke-linecap: square"/>
   </g>
   <g id="line2d_40">
    <path d="M 560.136579 273.48 
L 560.136579 24 
" clip-path="url(#pf3c9dedad5)" style="fill: none; stroke: #4f8a8b; stroke-opacity: 0.55; stroke-width: 0.8; stroke-linecap: square"/>
   </g>
   <g id="line2d_41">
    <path d="M 586.28125 273.48 
L 586.28125 24 
" clip-path="url(#pf3c9dedad5)" style="fill: none; stroke: #4f8a8b; stroke-opacity: 0.55; stroke-width: 0.8; stroke-linecap: square"/>
   </g>
   <g id="patch_3">
    <path d="M 43.78125 273.48 
L 43.78125 24 
" style="fill: none; stroke: #000000; stroke-width: 0.8; stroke-linejoin: miter; stroke-linecap: square"/>
   </g>
   <g id="patch_4">
    <path d="M 629.68125 273.48 
L 629.68125 24 
" style="fill: none; stroke: #000000; stroke-width: 0.8; stroke-linejoin: miter; stroke-linecap: square"/>
   </g>
   <g id="patch_5">
    <path d="M 43.78125 273.48 
L 629.68125 273.48 
" style="fill: none; stroke: #000000; stroke-width: 0.8; stroke-linejoin: miter; stroke-linecap: square"/>
   </g>
   <g id="patch_6">
    <path d="M 43.78125 24 
L 629.68125 24 
" style="fill: none; stroke: #000000; stroke-width: 0.8; stroke-linejoin: miter; stroke-linecap: square"/>
   </g>
   <g id="text_17">
    <!-- 1 -->
    <g transform="translate(135.973182 46.077876) rotate(-90) scale(0.075 -0.075)">
     <use xlink:href="#DejaVuSans-31"/>
    </g>
   </g>
   <g id="text_18">
    <!-- 2 -->
    <g transform="translate(169.11855 46.077876) rotate(-90) scale(0.075 -0.075)">
     <use xlink:href="#DejaVuSans-32"/>
    </g>
   </g>
   <g id="text_19">
    <!-- 3 -->
    <g transform="translate(172.973559 46.077876) rotate(-90) scale(0.075 -0.075)">
     <defs>
      <path id="DejaVuSans-33" d="M 2597 2516 
Q 3050 2419 3304 2112 
Q 3559 1806 3559 1356 
Q 3559 666 3084 287 
Q 2609 -91 1734 -91 
Q 1441 -91 1130 -33 
Q 819 25 488 141 
L 488 750 
Q 750 597 1062 519 
Q 1375 441 1716 441 
Q 2309 441 2620 675 
Q 2931 909 2931 1356 
Q 2931 1769 2642 2001 
Q 2353 2234 1838 2234 
L 1294 2234 
L 1294 2753 
L 1863 2753 
Q 2328 2753 2575 2939 
Q 2822 3125 2822 3475 
Q 2822 3834 2567 4026 
Q 2313 4219 1838 4219 
Q 1578 4219 1281 4162 
Q 984 4106 628 3988 
L 628 4550 
Q 988 4650 1302 4700 
Q 1616 4750 1894 4750 
Q 2613 4750 3031 4423 
Q 3450 4097 3450 3541 
Q 3450 3153 3228 2886 
Q 3006 2619 2597 2516 
z
" transform="scale(0.015625)"/>
     </defs>
     <use xlink:href="#DejaVuSans-33"/>
    </g>
   </g>
   <g id="text_20">
    <!-- 4 -->
    <g transform="translate(199.573121 46.077876) rotate(-90) scale(0.075 -0.075)">
     <use xlink:href="#DejaVuSans-34"/>
    </g>
   </g>
   <g id="text_21">
    <!-- 5 -->
    <g transform="translate(245.143183 46.077876) rotate(-90) scale(0.075 -0.075)">
     <defs>
      <path id="DejaVuSans-35" d="M 691 4666 
L 3169 4666 
L 3169 4134 
L 1269 4134 
L 1269 2991 
Q 1406 3038 1543 3061 
Q 1681 3084 1819 3084 
Q 2600 3084 3056 2656 
Q 3513 2228 3513 1497 
Q 3513 744 3044 326 
Q 2575 -91 1722 -91 
Q 1428 -91 1123 -41 
Q 819 9 494 109 
L 494 744 
Q 775 591 1075 516 
Q 1375 441 1709 441 
Q 2250 441 2565 725 
Q 2881 1009 2881 1497 
Q 2881 1984 2565 2268 
Q 2250 2553 1709 2553 
Q 1456 2553 1204 2497 
Q 953 2441 691 2322 
L 691 4666 
z
" transform="scale(0.015625)"/>
     </defs>
     <use xlink:href="#DejaVuSans-35"/>
    </g>
   </g>
   <g id="text_22">
    <!-- 6 -->
    <g transform="translate(253.184732 46.077876) rotate(-90) scale(0.075 -0.075)">
     <use xlink:href="#DejaVuSans-36"/>
    </g>
   </g>
   <g id="text_23">
    <!-- 7 -->
    <g transform="translate(294.452603 46.077876) rotate(-90) scale(0.075 -0.075)">
     <defs>
      <path id="DejaVuSans-37" d="M 525 4666 
L 3525 4666 
L 3525 4397 
L 1831 0 
L 1172 0 
L 2766 4134 
L 525 4134 
L 525 4666 
z
" transform="scale(0.015625)"/>
     </defs>
     <use xlink:href="#DejaVuSans-37"/>
    </g>
   </g>
   <g id="text_24">
    <!-- 8 -->
    <g transform="translate(362.289197 46.077876) rotate(-90) scale(0.075 -0.075)">
     <use xlink:href="#DejaVuSans-38"/>
    </g>
   </g>
   <g id="text_25">
    <!-- 9 -->
    <g transform="translate(466.640436 46.077876) rotate(-90) scale(0.075 -0.075)">
     <defs>
      <path id="DejaVuSans-39" d="M 703 97 
L 703 672 
Q 941 559 1184 500 
Q 1428 441 1663 441 
Q 2288 441 2617 861 
Q 2947 1281 2994 2138 
Q 2813 1869 2534 1725 
Q 2256 1581 1919 1581 
Q 1219 1581 811 2004 
Q 403 2428 403 3163 
Q 403 3881 828 4315 
Q 1253 4750 1959 4750 
Q 2769 4750 3195 4129 
Q 3622 3509 3622 2328 
Q 3622 1225 3098 567 
Q 2575 -91 1691 -91 
Q 1453 -91 1209 -44 
Q 966 3 703 97 
z
M 1959 2075 
Q 2384 2075 2632 2365 
Q 2881 2656 2881 3163 
Q 2881 3666 2632 3958 
Q 2384 4250 1959 4250 
Q 1534 4250 1286 3958 
Q 1038 3666 1038 3163 
Q 1038 2656 1286 2365 
Q 1534 2075 1959 2075 
z
" transform="scale(0.015625)"/>
     </defs>
     <use xlink:href="#DejaVuSans-39"/>
    </g>
   </g>
   <g id="text_26">
    <!-- 10 -->
    <g transform="translate(471.544008 46.077876) rotate(-90) scale(0.075 -0.075)">
     <use xlink:href="#DejaVuSans-31"/>
     <use xlink:href="#DejaVuSans-30" transform="translate(63.623047 0)"/>
    </g>
   </g>
   <g id="text_27">
    <!-- 11 -->
    <g transform="translate(562.20611 46.077876) rotate(-90) scale(0.075 -0.075)">
     <use xlink:href="#DejaVuSans-31"/>
     <use xlink:href="#DejaVuSans-31" transform="translate(63.623047 0)"/>
    </g>
   </g>
   <g id="text_28">
    <!-- 12 -->
    <g transform="translate(588.350781 46.077876) rotate(-90) scale(0.075 -0.075)">
     <use xlink:href="#DejaVuSans-31"/>
     <use xlink:href="#DejaVuSans-32" transform="translate(63.623047 0)"/>
    </g>
   </g>
   <g id="text_29">
    <!-- B6 Gaussian-broadened vibrational spectrum, sigma = 22 cm$^{-1}$ -->
    <g transform="translate(144.67125 18) scale(0.12 -0.12)">
     <defs>
      <path id="DejaVuSans-42" d="M 1259 2228 
L 1259 519 
L 2272 519 
Q 2781 519 3026 730 
Q 3272 941 3272 1375 
Q 3272 1813 3026 2020 
Q 2781 2228 2272 2228 
L 1259 2228 
z
M 1259 4147 
L 1259 2741 
L 2194 2741 
Q 2656 2741 2882 2914 
Q 3109 3088 3109 3444 
Q 3109 3797 2882 3972 
Q 2656 4147 2194 4147 
L 1259 4147 
z
M 628 4666 
L 2241 4666 
Q 2963 4666 3353 4366 
Q 3744 4066 3744 3513 
Q 3744 3084 3544 2831 
Q 3344 2578 2956 2516 
Q 3422 2416 3680 2098 
Q 3938 1781 3938 1306 
Q 3938 681 3513 340 
Q 3088 0 2303 0 
L 628 0 
L 628 4666 
z
" transform="scale(0.015625)"/>
      <path id="DejaVuSans-47" d="M 3809 666 
L 3809 1919 
L 2778 1919 
L 2778 2438 
L 4434 2438 
L 4434 434 
Q 4069 175 3628 42 
Q 3188 -91 2688 -91 
Q 1594 -91 976 548 
Q 359 1188 359 2328 
Q 359 3472 976 4111 
Q 1594 4750 2688 4750 
Q 3144 4750 3555 4637 
Q 3966 4525 4313 4306 
L 4313 3634 
Q 3963 3931 3569 4081 
Q 3175 4231 2741 4231 
Q 1884 4231 1454 3753 
Q 1025 3275 1025 2328 
Q 1025 1384 1454 906 
Q 1884 428 2741 428 
Q 3075 428 3337 486 
Q 3600 544 3809 666 
z
" transform="scale(0.015625)"/>
      <path id="DejaVuSans-2d" d="M 313 2009 
L 1997 2009 
L 1997 1497 
L 313 1497 
L 313 2009 
z
" transform="scale(0.015625)"/>
      <path id="DejaVuSans-62" d="M 3116 1747 
Q 3116 2381 2855 2742 
Q 2594 3103 2138 3103 
Q 1681 3103 1420 2742 
Q 1159 2381 1159 1747 
Q 1159 1113 1420 752 
Q 1681 391 2138 391 
Q 2594 391 2855 752 
Q 3116 1113 3116 1747 
z
M 1159 2969 
Q 1341 3281 1617 3432 
Q 1894 3584 2278 3584 
Q 2916 3584 3314 3078 
Q 3713 2572 3713 1747 
Q 3713 922 3314 415 
Q 2916 -91 2278 -91 
Q 1894 -91 1617 61 
Q 1341 213 1159 525 
L 1159 0 
L 581 0 
L 581 4863 
L 1159 4863 
L 1159 2969 
z
" transform="scale(0.015625)"/>
      <path id="DejaVuSans-76" d="M 191 3500 
L 800 3500 
L 1894 563 
L 2988 3500 
L 3597 3500 
L 2284 0 
L 1503 0 
L 191 3500 
z
" transform="scale(0.015625)"/>
      <path id="DejaVuSans-70" d="M 1159 525 
L 1159 -1331 
L 581 -1331 
L 581 3500 
L 1159 3500 
L 1159 2969 
Q 1341 3281 1617 3432 
Q 1894 3584 2278 3584 
Q 2916 3584 3314 3078 
Q 3713 2572 3713 1747 
Q 3713 922 3314 415 
Q 2916 -91 2278 -91 
Q 1894 -91 1617 61 
Q 1341 213 1159 525 
z
M 3116 1747 
Q 3116 2381 2855 2742 
Q 2594 3103 2138 3103 
Q 1681 3103 1420 2742 
Q 1159 2381 1159 1747 
Q 1159 1113 1420 752 
Q 1681 391 2138 391 
Q 2594 391 2855 752 
Q 3116 1113 3116 1747 
z
" transform="scale(0.015625)"/>
      <path id="DejaVuSans-67" d="M 2906 1791 
Q 2906 2416 2648 2759 
Q 2391 3103 1925 3103 
Q 1463 3103 1205 2759 
Q 947 2416 947 1791 
Q 947 1169 1205 825 
Q 1463 481 1925 481 
Q 2391 481 2648 825 
Q 2906 1169 2906 1791 
z
M 3481 434 
Q 3481 -459 3084 -895 
Q 2688 -1331 1869 -1331 
Q 1566 -1331 1297 -1286 
Q 1028 -1241 775 -1147 
L 775 -588 
Q 1028 -725 1275 -790 
Q 1522 -856 1778 -856 
Q 2344 -856 2625 -561 
Q 2906 -266 2906 331 
L 2906 616 
Q 2728 306 2450 153 
Q 2172 0 1784 0 
Q 1141 0 747 490 
Q 353 981 353 1791 
Q 353 2603 747 3093 
Q 1141 3584 1784 3584 
Q 2172 3584 2450 3431 
Q 2728 3278 2906 2969 
L 2906 3500 
L 3481 3500 
L 3481 434 
z
" transform="scale(0.015625)"/>
      <path id="DejaVuSans-3d" d="M 678 2906 
L 4684 2906 
L 4684 2381 
L 678 2381 
L 678 2906 
z
M 678 1631 
L 4684 1631 
L 4684 1100 
L 678 1100 
L 678 1631 
z
" transform="scale(0.015625)"/>
     </defs>
     <use xlink:href="#DejaVuSans-42" transform="translate(0 0.684375)"/>
     <use xlink:href="#DejaVuSans-36" transform="translate(68.603516 0.684375)"/>
     <use xlink:href="#DejaVuSans-20" transform="translate(132.226562 0.684375)"/>
     <use xlink:href="#DejaVuSans-47" transform="translate(164.013672 0.684375)"/>
     <use xlink:href="#DejaVuSans-61" transform="translate(241.503906 0.684375)"/>
     <use xlink:href="#DejaVuSans-75" transform="translate(302.783203 0.684375)"/>
     <use xlink:href="#DejaVuSans-73" transform="translate(366.162109 0.684375)"/>
     <use xlink:href="#DejaVuSans-73" transform="translate(418.261719 0.684375)"/>
     <use xlink:href="#DejaVuSans-69" transform="translate(470.361328 0.684375)"/>
     <use xlink:href="#DejaVuSans-61" transform="translate(498.144531 0.684375)"/>
     <use xlink:href="#DejaVuSans-6e" transform="translate(559.423828 0.684375)"/>
     <use xlink:href="#DejaVuSans-2d" transform="translate(622.802734 0.684375)"/>
     <use xlink:href="#DejaVuSans-62" transform="translate(658.886719 0.684375)"/>
     <use xlink:href="#DejaVuSans-72" transform="translate(722.363281 0.684375)"/>
     <use xlink:href="#DejaVuSans-6f" transform="translate(763.476562 0.684375)"/>
     <use xlink:href="#DejaVuSans-61" transform="translate(824.658203 0.684375)"/>
     <use xlink:href="#DejaVuSans-64" transform="translate(885.9375 0.684375)"/>
     <use xlink:href="#DejaVuSans-65" transform="translate(949.414062 0.684375)"/>
     <use xlink:href="#DejaVuSans-6e" transform="translate(1010.9375 0.684375)"/>
     <use xlink:href="#DejaVuSans-65" transform="translate(1074.316406 0.684375)"/>
     <use xlink:href="#DejaVuSans-64" transform="translate(1135.839844 0.684375)"/>
     <use xlink:href="#DejaVuSans-20" transform="translate(1199.316406 0.684375)"/>
     <use xlink:href="#DejaVuSans-76" transform="translate(1231.103516 0.684375)"/>
     <use xlink:href="#DejaVuSans-69" transform="translate(1290.283203 0.684375)"/>
     <use xlink:href="#DejaVuSans-62" transform="translate(1318.066406 0.684375)"/>
     <use xlink:href="#DejaVuSans-72" transform="translate(1381.542969 0.684375)"/>
     <use xlink:href="#DejaVuSans-61" transform="translate(1422.65625 0.684375)"/>
     <use xlink:href="#DejaVuSans-74" transform="translate(1483.935547 0.684375)"/>
     <use xlink:href="#DejaVuSans-69" transform="translate(1523.144531 0.684375)"/>
     <use xlink:href="#DejaVuSans-6f" transform="translate(1550.927734 0.684375)"/>
     <use xlink:href="#DejaVuSans-6e" transform="translate(1612.109375 0.684375)"/>
     <use xlink:href="#DejaVuSans-61" transform="translate(1675.488281 0.684375)"/>
     <use xlink:href="#DejaVuSans-6c" transform="translate(1736.767578 0.684375)"/>
     <use xlink:href="#DejaVuSans-20" transform="translate(1764.550781 0.684375)"/>
     <use xlink:href="#DejaVuSans-73" transform="translate(1796.337891 0.684375)"/>
     <use xlink:href="#DejaVuSans-70" transform="translate(1848.4375 0.684375)"/>
     <use xlink:href="#DejaVuSans-65" transform="translate(1911.914062 0.684375)"/>
     <use xlink:href="#DejaVuSans-63" transform="translate(1973.4375 0.684375)"/>
     <use xlink:href="#DejaVuSans-74" transform="translate(2028.417969 0.684375)"/>
     <use xlink:href="#DejaVuSans-72" transform="translate(2067.626953 0.684375)"/>
     <use xlink:href="#DejaVuSans-75" transform="translate(2108.740234 0.684375)"/>
     <use xlink:href="#DejaVuSans-6d" transform="translate(2172.119141 0.684375)"/>
     <use xlink:href="#DejaVuSans-2c" transform="translate(2269.53125 0.684375)"/>
     <use xlink:href="#DejaVuSans-20" transform="translate(2301.318359 0.684375)"/>
     <use xlink:href="#DejaVuSans-73" transform="translate(2333.105469 0.684375)"/>
     <use xlink:href="#DejaVuSans-69" transform="translate(2385.205078 0.684375)"/>
     <use xlink:href="#DejaVuSans-67" transform="translate(2412.988281 0.684375)"/>
     <use xlink:href="#DejaVuSans-6d" transform="translate(2476.464844 0.684375)"/>
     <use xlink:href="#DejaVuSans-61" transform="translate(2573.876953 0.684375)"/>
     <use xlink:href="#DejaVuSans-20" transform="translate(2635.15625 0.684375)"/>
     <use xlink:href="#DejaVuSans-3d" transform="translate(2666.943359 0.684375)"/>
     <use xlink:href="#DejaVuSans-20" transform="translate(2750.732422 0.684375)"/>
     <use xlink:href="#DejaVuSans-32" transform="translate(2782.519531 0.684375)"/>
     <use xlink:href="#DejaVuSans-32" transform="translate(2846.142578 0.684375)"/>
     <use xlink:href="#DejaVuSans-20" transform="translate(2909.765625 0.684375)"/>
     <use xlink:href="#DejaVuSans-63" transform="translate(2941.552734 0.684375)"/>
     <use xlink:href="#DejaVuSans-6d" transform="translate(2996.533203 0.684375)"/>
     <use xlink:href="#DejaVuSans-2212" transform="translate(3094.902344 38.965625) scale(0.7)"/>
     <use xlink:href="#DejaVuSans-31" transform="translate(3153.554688 38.965625) scale(0.7)"/>
    </g>
   </g>
  </g>
 </g>
 <defs>
  <clipPath id="pf3c9dedad5">
   <rect x="43.78125" y="24" width="585.9" height="249.48"/>
  </clipPath>
 </defs>
</svg>
